<svg class="prefix__variation-svg prefix__fade-enter-done" viewBox="-20 -70 615 615" xmlns="http://www.w3.org/2000/svg" xmlns:xlink="http://www.w3.org/1999/xlink"><image height="475" width="475" x="50" preserveAspectRatio="xMinYMin" href="https://fiverr-res.cloudinary.com/image/upload/f_png,q_auto,t_makers_project_variation_preview/v1/secured-attachments/makers_project_variation/preview_file/751ddd87d2bf83e658d44ab5a66db145-1667835763/5da5d3f5c5e5d6000e89e003.svg?__cld_token__=exp=1669647261~hmac=c05613d69da7a4904cef38fb9301d9c756b0af9a5785c87f58c67651ae391114" xlink:href="https://fiverr-res.cloudinary.com/image/upload/f_png,q_auto,t_makers_project_variation_preview/v1/secured-attachments/makers_project_variation/preview_file/751ddd87d2bf83e658d44ab5a66db145-1667835763/5da5d3f5c5e5d6000e89e003.svg?__cld_token__=exp=1669647261~hmac=c05613d69da7a4904cef38fb9301d9c756b0af9a5785c87f58c67651ae391114" style="position:absolute"/><svg data-layer-type="text" y="420.48" x="102.651" viewBox="1.58 3.62 369.7 15.05" width="369.7" height="15.05" style="text-align:center;text-transform:capitalize;position:absolute;--darkreader-inline-fill:#e8e6e3" dominant-baseline="hanging" overflow="visible"><path d="M5.92 15.57q-1.09 0-1.97-.51-.88-.5-1.4-1.45-.52-.95-.52-2.33 0-1.38.51-2.33.52-.95 1.4-1.45.88-.49 1.98-.49 1.2 0 2.15.53.95.54 1.5 1.51.54.97.54 2.23 0 1.28-.54 2.24-.55.96-1.5 1.5-.95.55-2.15.55zm-3.2 3.02H1.58V7.09h1.09v2.53l-.11 1.68.16 1.69v5.6zm3.12-4.03q.9 0 1.6-.41.7-.41 1.12-1.15.42-.74.42-1.72t-.42-1.71q-.42-.74-1.12-1.15Q6.74 8 5.84 8q-.9 0-1.61.42-.71.41-1.12 1.15-.41.73-.41 1.71T3.11 13q.41.74 1.12 1.15.71.41 1.61.41zm16.06 1.01q-1.07 0-1.87-.4t-1.24-1.2q-.44-.8-.44-2V7.09h1.14v4.75q0 1.34.66 2.02.67.68 1.87.68.88 0 1.52-.36.65-.36 1-1.04.34-.69.34-1.65v-4.4h1.14v8.4h-1.09v-2.31l.17.42q-.4.93-1.24 1.45-.84.52-1.96.52zm14.42-.08h-1.14v-8.4h1.09v2.29l-.11-.4q.35-.96 1.18-1.47.84-.5 2.07-.5v1.1q-.07 0-.13-.01h-.13q-1.33 0-2.08.8-.75.81-.75 2.3v4.29zm14.64.08q-1.31 0-2.3-.55-1-.56-1.56-1.52-.56-.97-.56-2.22 0-1.25.54-2.21t1.47-1.51q.94-.55 2.11-.55 1.18 0 2.1.53.92.54 1.45 1.51.53.97.53 2.23 0 .08-.01.17-.01.09-.01.18h-7.31v-.85h6.7l-.45.34q0-.91-.39-1.62-.39-.72-1.06-1.12-.67-.4-1.55-.4-.87 0-1.56.4-.68.4-1.07 1.12-.38.72-.38 1.65v.18q0 .96.42 1.69.43.72 1.19 1.13.76.41 1.73.41.77 0 1.43-.27.67-.27 1.15-.83l.64.73q-.56.67-1.4 1.03-.84.35-1.85.35zm25.71 0q-1.21 0-2.18-.55-.97-.56-1.53-1.52-.56-.97-.56-2.22 0-1.26.56-2.22.56-.96 1.52-1.51.96-.54 2.19-.54 1.25 0 2.22.54.97.55 1.52 1.51t.55 2.22q0 1.25-.55 2.22-.55.96-1.53 1.52-.98.55-2.21.55zm0-1.01q.91 0 1.62-.41.7-.41 1.11-1.15.41-.74.41-1.72 0-.99-.41-1.73-.41-.73-1.11-1.14-.71-.41-1.6-.41-.9 0-1.6.41-.71.41-1.12 1.14-.42.74-.42 1.73 0 .98.42 1.72.41.74 1.12 1.15.7.41 1.58.41zm13.75.93h-1.14v-8.4h1.09v2.29l-.11-.4q.35-.96 1.18-1.47.83-.5 2.06-.5v1.1q-.06 0-.12-.01h-.13q-1.33 0-2.08.8-.75.81-.75 2.3v4.29zm14.65 3.18q-1.15 0-2.21-.33-1.05-.34-1.71-.96l.58-.87q.59.53 1.46.84.87.31 1.85.31 1.6 0 2.35-.74t.75-2.31v-2.1l.16-1.44-.11-1.44V7.09h1.09v7.37q0 2.18-1.06 3.2-1.07 1.01-3.15 1.01zm-.21-3.5q-1.2 0-2.16-.52-.96-.52-1.51-1.45-.55-.93-.55-2.13 0-1.2.55-2.12.55-.92 1.51-1.43.96-.51 2.16-.51 1.12 0 2.02.46.9.47 1.42 1.38.53.91.53 2.22t-.53 2.23q-.52.91-1.42 1.39-.9.48-2.02.48zm.12-1.01q.92 0 1.64-.39.72-.39 1.14-1.09.42-.7.42-1.61 0-.91-.42-1.6-.42-.69-1.14-1.08-.72-.39-1.64-.39-.92 0-1.64.39-.73.39-1.14 1.08-.41.69-.41 1.6 0 .91.41 1.61.41.7 1.14 1.09.72.39 1.64.39zm19.82 1.33h-1.09v-1.86l-.05-.3v-3.11q0-1.07-.6-1.64-.6-.58-1.78-.58-.82 0-1.55.27-.74.27-1.25.72l-.51-.85q.64-.54 1.53-.84.9-.29 1.89-.29 1.63 0 2.52.81.89.8.89 2.45v5.22zm-3.98.08q-.95 0-1.64-.31-.7-.32-1.07-.87-.37-.55-.37-1.27 0-.66.32-1.19.31-.54 1.02-.87.71-.32 1.91-.32h2.9v.84h-2.87q-1.21 0-1.68.44-.48.43-.48 1.07 0 .72.56 1.15.56.43 1.57.43.96 0 1.66-.44.69-.44 1.01-1.27l.26.78q-.32.84-1.11 1.33-.79.5-1.99.5zm17.36-8.56q1.02 0 1.8.39.77.39 1.21 1.19.44.8.44 2.02v4.88h-1.13v-4.77q0-1.33-.67-2.01-.66-.68-1.86-.68-.9 0-1.56.36-.67.36-1.03 1.04t-.36 1.64v4.42h-1.13v-8.4h1.09v2.3l-.18-.43q.4-.91 1.28-1.43.88-.52 2.1-.52zm13.66 8.48h-1.14v-8.4h1.14v8.4zm-.56-10.26q-.35 0-.59-.24t-.24-.57q0-.34.24-.57.24-.23.59-.23t.59.22q.24.22.24.56 0 .35-.23.59t-.6.24zm13.22 10.34q-1.25 0-2.24-.55-.98-.56-1.54-1.52-.56-.97-.56-2.22 0-1.26.56-2.22.56-.96 1.54-1.51.99-.54 2.24-.54 1.07 0 1.93.41.87.42 1.36 1.25l-.85.58q-.43-.64-1.07-.95-.64-.3-1.39-.3-.9 0-1.62.41-.72.41-1.13 1.14-.42.74-.42 1.73t.42 1.73q.41.73 1.13 1.14.72.41 1.62.41.75 0 1.39-.3.64-.31 1.07-.93l.85.57q-.49.82-1.36 1.24-.86.43-1.93.43zm25.29 3.1q-1.15 0-2.21-.33-1.05-.34-1.71-.96l.58-.87q.59.53 1.46.84.87.31 1.85.31 1.6 0 2.35-.74t.75-2.31v-2.1l.16-1.44-.11-1.44V7.09H194v7.37q0 2.18-1.06 3.2-1.07 1.01-3.15 1.01zm-.21-3.5q-1.2 0-2.16-.52-.96-.52-1.51-1.45-.55-.93-.55-2.13 0-1.2.55-2.12.55-.92 1.51-1.43.96-.51 2.16-.51 1.12 0 2.02.46.9.47 1.42 1.38.53.91.53 2.22t-.53 2.23q-.52.91-1.42 1.39-.9.48-2.02.48zm.12-1.01q.92 0 1.64-.39.72-.39 1.14-1.09.42-.7.42-1.61 0-.91-.42-1.6-.42-.69-1.14-1.08-.72-.39-1.64-.39-.92 0-1.64.39-.73.39-1.14 1.08-.41.69-.41 1.6 0 .91.41 1.61.41.7 1.14 1.09.72.39 1.64.39zm14.6 1.33h-1.13v-8.4h1.09v2.29l-.12-.4q.36-.96 1.19-1.47.83-.5 2.06-.5v1.1q-.06 0-.13-.01h-.12q-1.33 0-2.08.8-.76.81-.76 2.3v4.29zm14.64.08q-1.31 0-2.3-.55-.99-.56-1.55-1.52-.56-.97-.56-2.22 0-1.25.53-2.21.54-.96 1.48-1.51.93-.55 2.1-.55 1.18 0 2.1.53.92.54 1.45 1.51.53.97.53 2.23 0 .08-.01.17-.01.09-.01.18h-7.31v-.85h6.71l-.45.34q0-.91-.39-1.62-.4-.72-1.07-1.12-.67-.4-1.55-.4-.86 0-1.55.4-.69.4-1.07 1.12-.39.72-.39 1.65v.18q0 .96.43 1.69.42.72 1.18 1.13.76.41 1.74.41.76 0 1.43-.27.66-.27 1.14-.83l.64.73q-.56.67-1.4 1.03-.84.35-1.85.35zm15.67 0q-1.31 0-2.31-.55-.99-.56-1.55-1.52-.56-.97-.56-2.22 0-1.25.54-2.21.53-.96 1.47-1.51t2.1-.55q1.19 0 2.11.53.92.54 1.45 1.51.52.97.52 2.23v.17q-.01.09-.01.18h-7.31v-.85h6.7l-.45.34q0-.91-.39-1.62-.39-.72-1.06-1.12-.68-.4-1.56-.4-.86 0-1.55.4-.69.4-1.07 1.12-.38.72-.38 1.65v.18q0 .96.42 1.69.42.72 1.18 1.13.76.41 1.74.41.77 0 1.43-.27.67-.27 1.15-.83l.64.73q-.56.67-1.4 1.03-.84.35-1.85.35zm16.38-8.56q1.03 0 1.8.39.78.39 1.22 1.19.44.8.44 2.02v4.88h-1.14v-4.77q0-1.33-.66-2.01-.67-.68-1.87-.68-.89 0-1.56.36-.66.36-1.02 1.04t-.36 1.64v4.42h-1.14v-8.4h1.09v2.3l-.17-.43q.4-.91 1.28-1.43.88-.52 2.09-.52zm26.31 11.66q-1.16 0-2.21-.33-1.06-.34-1.71-.96l.57-.87q.59.53 1.47.84.87.31 1.84.31 1.6 0 2.36-.74.75-.74.75-2.31v-2.1l.16-1.44-.11-1.44V7.09h1.08v7.37q0 2.18-1.06 3.2-1.06 1.01-3.14 1.01zm-.21-3.5q-1.2 0-2.16-.52-.96-.52-1.51-1.45-.56-.93-.56-2.13 0-1.2.56-2.12.55-.92 1.51-1.43.96-.51 2.16-.51 1.12 0 2.01.46.9.47 1.43 1.38.53.91.53 2.22t-.53 2.23q-.53.91-1.43 1.39-.89.48-2.01.48zm.11-1.01q.93 0 1.65-.39.72-.39 1.13-1.09.42-.7.42-1.61 0-.91-.42-1.6-.41-.69-1.13-1.08-.72-.39-1.65-.39-.91 0-1.64.39-.73.39-1.14 1.08-.4.69-.4 1.6 0 .91.4 1.61.41.7 1.14 1.09.73.39 1.64.39zm16.9 1.41q-1.22 0-2.19-.55-.97-.56-1.53-1.52-.56-.97-.56-2.22 0-1.26.56-2.22.56-.96 1.52-1.51.96-.54 2.2-.54 1.24 0 2.21.54.97.55 1.52 1.51t.55 2.22q0 1.25-.55 2.22-.55.96-1.53 1.52-.97.55-2.2.55zm0-1.01q.91 0 1.61-.41.71-.41 1.11-1.15.41-.74.41-1.72 0-.99-.41-1.73-.4-.73-1.11-1.14-.7-.41-1.6-.41-.89 0-1.6.41-.7.41-1.12 1.14-.41.74-.41 1.73 0 .98.41 1.72.42.74 1.12 1.15.71.41 1.59.41zm16.03 1.01q-1.22 0-2.19-.55-.96-.56-1.52-1.52-.56-.97-.56-2.22 0-1.26.56-2.22.56-.96 1.52-1.51.96-.54 2.19-.54 1.25 0 2.21.54.97.55 1.52 1.51.56.96.56 2.22 0 1.25-.56 2.22-.55.96-1.52 1.52-.98.55-2.21.55zm0-1.01q.91 0 1.61-.41.71-.41 1.12-1.15.4-.74.4-1.72 0-.99-.4-1.73-.41-.73-1.12-1.14-.7-.41-1.6-.41-.89 0-1.6.41-.7.41-1.12 1.14-.41.74-.41 1.73 0 .98.41 1.72.42.74 1.12 1.15.71.41 1.59.41zm15.95 1.01q-1.2 0-2.15-.55-.95-.54-1.5-1.51-.54-.97-.54-2.23 0-1.28.54-2.24.55-.96 1.5-1.5.95-.53 2.15-.53 1.1 0 1.98.49.87.5 1.39 1.45.52.95.52 2.33 0 1.36-.51 2.32-.52.96-1.39 1.46-.87.51-1.99.51zm.08-1.01q.9 0 1.61-.41.71-.41 1.12-1.15.41-.74.41-1.72 0-.99-.41-1.73-.41-.73-1.12-1.14-.71-.41-1.61-.41-.88 0-1.58.41-.71.41-1.12 1.14-.42.74-.42 1.73 0 .98.42 1.72.41.74 1.12 1.15.7.41 1.58.41zm4.26.93h-1.09v-2.53l.11-1.7-.16-1.69V3.62h1.14v11.87zm10.3 0h-1.14v-8.4h1.14v8.4zm-.56-10.26q-.35 0-.59-.24t-.24-.57q0-.34.24-.57.24-.23.59-.23t.59.22q.24.22.24.56 0 .35-.23.59t-.6.24zm13.3 10.34q-1.32 0-2.31-.55-.99-.56-1.55-1.52-.56-.97-.56-2.22 0-1.25.54-2.21.53-.96 1.47-1.51.93-.55 2.1-.55 1.19 0 2.11.53.92.54 1.44 1.51.53.97.53 2.23 0 .08-.01.17v.18h-7.32v-.85h6.71l-.45.34q0-.91-.39-1.62-.39-.72-1.07-1.12-.67-.4-1.55-.4-.86 0-1.55.4-.69.4-1.07 1.12-.39.72-.39 1.65v.18q0 .96.43 1.69.42.72 1.18 1.13.76.41 1.74.41.77 0 1.43-.27.66-.27 1.14-.83l.64.73q-.56.67-1.4 1.03-.84.35-1.84.35zm14.35 0q-1.04 0-1.97-.3-.93-.29-1.46-.74l.52-.9q.51.39 1.31.67t1.68.28q1.2 0 1.73-.38.52-.38.52-1 0-.46-.29-.73-.3-.26-.78-.4-.48-.13-1.07-.23-.59-.1-1.18-.22-.58-.13-1.06-.38-.48-.25-.78-.68-.29-.43-.29-1.15 0-.69.38-1.23.39-.55 1.13-.86.74-.31 1.82-.31.81 0 1.63.21.81.22 1.34.57l-.49.91q-.56-.38-1.2-.55-.64-.17-1.28-.17-1.14 0-1.68.4-.53.39-.53 1 0 .48.29.75.3.27.79.42.49.15 1.07.25.58.1 1.17.23.58.14 1.07.37.49.23.78.66.3.42.3 1.11 0 .73-.41 1.27t-1.18.83q-.78.3-1.88.3z" data-horizontal-grow="center" font-family="Montserrat" font-weight="400" letter-spacing="6" font-size="16"/></svg><svg data-layer-type="text" y="368.52" x="187.767" viewBox="4.3 19.55 199.48 35.61" width="199.48" height="35.61" style="position:absolute" overflow="visible"><path d="M11.66 50.54l-4.84.43L4.3 21.75l10.47-.64-3.11 29.43zm10.89-28.2l10.1-1.23 3.54 22.07h.43l6.34-22.07 3.98 1.07-9.56 28.2-3.98.65-10.85-28.69zM68.3 52.58l-.21-1.72q-1.18.11-3.46.11-2.29 0-5.16-.78t-4.43-2.06q-.75-3.55-.7-7.31 0-6.5 2.23-12.17 2.23-5.66 6.9-9.1l8.49 5.37q-6.07 3.87-9.64 9.88-3.58 6.02-3.58 12.04 2.42.48 4.78.48 2.37 0 4.25-.43l-.86-9.61 8.32-.54-2.63 15.47-4.3.37zm28.09-16.7q-3.01 0-4.54 2.09-1.53 2.1-2.28 7.68l-.59 5-4.35.38-2.21-21.81 9.4-1.45-.91 7.03h.32q3.55-7.57 8.97-8.05l-1.23 9.34q-1.62-.21-2.58-.21zm17.18-9.24q10.63 4.24 10.63 10.64 0 3.33-1.88 4.78-1.88 1.45-5.99 1.45t-6.2-.49q-.81 2.04-.86 4.3 1.99.27 5.53.27 3.55 0 7.63-1.4l1.29 4.24q-3.22 1.03-7.2 1.03-7.14 0-10.47-2.64-.7-3.11-.7-5.85 0-5.53 2.44-10.02 2.45-4.48 5.78-6.31zm-2.58 14.34q.54.06 2.87.06 2.34 0 5.35-.65.1-.81.16-1.66 0-2.64-1.51-5.05-4.4 2.9-6.87 7.3zm29-14.34q10.63 4.24 10.63 10.64 0 3.33-1.88 4.78-1.88 1.45-5.99 1.45t-6.2-.49q-.81 2.04-.86 4.3 1.99.27 5.53.27 3.55 0 7.63-1.4l1.29 4.24q-3.23 1.03-7.2 1.03-7.14 0-10.47-2.64-.7-3.11-.7-5.85 0-5.53 2.44-10.02 2.45-4.48 5.78-6.31zm-2.58 14.34q.53.06 2.87.06t5.35-.65q.1-.81.16-1.66 0-2.64-1.51-5.05-4.4 2.9-6.87 7.3zm38.93-13.64q.81 0 1.66.32 2.26 2.69 3.07 9.4.8 6.71.8 13.32l-7.89.65q0-10.16-.76-18.43-5.85 2.15-7.78 18.05l-4.35.38-2.21-21.81 9.4-1.45-1.02 7.73h.43q1.77-3.81 4-5.99 2.23-2.17 4.65-2.17zm14.28 8.54q0-5.64 5.96-10.31l7.2 4.88q-4.89 3.12-4.89 6.56 0 1.82 2.01 4.72 2.02 2.9 2.02 4.52 0 5.74-7.95 8.91l-1.93-2.63q3.49-1.88 3.49-4.11 0-2.23-2.96-5.5-1.12-1.24-2.04-3.15-.91-1.9-.91-3.89z" data-horizontal-grow="center" dominant-baseline="hanging" fill="#252424" font-family="Ravi Prakash" font-weight="400" font-size="55" letter-spacing="3"/></svg></svg>