<svg class="prefix__variation-svg prefix__fade-enter-done" viewBox="78 87 486.71 336" xmlns="http://www.w3.org/2000/svg" xmlns:xlink="http://www.w3.org/1999/xlink"><image height="196" width="89.27" y="157" x="148" preserveAspectRatio="xMinYMin" href="https://fiverr-res.cloudinary.com/image/upload/f_png,q_auto,t_makers_project_variation_preview/v1/secured-attachments/makers_project_variation/preview_file/11f335a76749085576c60c498fbcedd5-1619536565/5ff34fb74b1d15000e5fb29d.svg?__cld_token__=exp=1669647010~hmac=3cbbfadc7f12578609232ca30ee4ad243ad1ab94f5c13386af626160d134510e" xlink:href="https://fiverr-res.cloudinary.com/image/upload/f_png,q_auto,t_makers_project_variation_preview/v1/secured-attachments/makers_project_variation/preview_file/11f335a76749085576c60c498fbcedd5-1619536565/5ff34fb74b1d15000e5fb29d.svg?__cld_token__=exp=1669647010~hmac=3cbbfadc7f12578609232ca30ee4ad243ad1ab94f5c13386af626160d134510e" style="position:absolute"/><svg data-layer-type="text" x="263.5" y="300.885" viewBox="1.59 3.94 231.21 17.38" height="17.38" width="231.21" style="position:absolute"><path d="M3.17 17.44H1.59V4.35h4.42q1.54 0 2.52.55t1.45 1.49q.48.94.48 2.1 0 1.16-.47 2.1-.47.95-1.45 1.51t-2.51.56H2.86v-1.41h3.12q1.06 0 1.7-.36.64-.37.93-.99.29-.63.29-1.41 0-.79-.29-1.41-.29-.62-.94-.97-.65-.36-1.71-.36H3.17v11.69zM19 13.42v-5.8h1.51v9.82H19v-1.66h-.11q-.34.74-1.07 1.26-.73.53-1.84.53-.92 0-1.64-.41-.71-.41-1.12-1.23-.41-.82-.41-2.07V7.62h1.51v6.14q0 1.07.6 1.71.61.64 1.55.64.56 0 1.14-.29.59-.29.99-.88.4-.6.4-1.52zm5.78 4.02h-1.51V7.62h1.45V9.1h.11q.27-.73.97-1.18.7-.45 1.58-.45h.42q.25.01.38.02v1.54q-.08-.02-.35-.07-.27-.04-.57-.04-.72 0-1.28.3t-.88.82q-.32.52-.32 1.18v6.22zm9 .2q-1.42 0-2.45-.63-1.03-.63-1.58-1.76-.55-1.14-.55-2.64 0-1.51.55-2.67.55-1.15 1.55-1.8.99-.65 2.32-.65.77 0 1.52.26.74.25 1.36.82.61.58.98 1.52.36.94.36 2.31v.64h-7.57v-1.3h6.04q0-.84-.33-1.49t-.94-1.03q-.6-.37-1.42-.37-.9 0-1.55.44-.66.45-1.01 1.15-.35.71-.35 1.53v.87q0 1.11.38 1.88.39.77 1.08 1.17.69.4 1.61.4.59 0 1.07-.17.49-.17.84-.51.35-.35.54-.86l1.46.41q-.23.74-.78 1.3-.54.56-1.34.87-.8.31-1.79.31zm15.41 0q-1.33 0-2.33-.63t-1.56-1.77q-.56-1.14-.56-2.66 0-1.53.56-2.68.56-1.14 1.56-1.78 1-.63 2.33-.63t2.33.63q1 .64 1.56 1.78.56 1.15.56 2.68 0 1.52-.56 2.66-.56 1.14-1.56 1.77-1 .63-2.33.63zm0-1.35q1.01 0 1.67-.52.65-.52.96-1.36.31-.85.31-1.83 0-.98-.31-1.83-.31-.86-.96-1.38-.66-.52-1.67-.52-1.01 0-1.66.52-.65.52-.96 1.38-.32.85-.32 1.83 0 .98.32 1.83.31.84.96 1.36.65.52 1.66.52zm8.26 1.15h-1.51V7.62h1.46V9.1h.1q.27-.73.97-1.18.71-.45 1.59-.45h.42q.24.01.37.02v1.54q-.07-.02-.35-.07-.27-.04-.57-.04-.71 0-1.27.3t-.89.82q-.32.52-.32 1.18v6.22zm8.85 3.88q-1.09 0-1.88-.27-.79-.28-1.31-.73-.52-.45-.83-.96l1.21-.85q.2.27.51.62.32.35.86.61.55.25 1.44.25 1.19 0 1.96-.57.77-.58.77-1.8v-2h-.12q-.17.27-.47.66-.31.4-.87.7-.57.3-1.53.3-1.19 0-2.13-.56t-1.49-1.63q-.54-1.08-.54-2.61 0-1.51.53-2.63.53-1.12 1.47-1.74.95-.62 2.19-.62.96 0 1.52.32.57.31.87.71.31.4.47.66h.16V7.62h1.45v10.1q0 1.26-.57 2.06t-1.53 1.17q-.97.37-2.14.37zm-.05-5.39q.9 0 1.53-.42.63-.41.95-1.19.33-.78.33-1.87 0-1.06-.32-1.87t-.95-1.27q-.62-.46-1.54-.46-.96 0-1.6.48-.63.49-.95 1.31-.32.81-.32 1.81 0 1.02.33 1.81.32.78.96 1.22.63.45 1.58.45zm9.94 1.74q-.93 0-1.69-.36-.76-.35-1.21-1.03-.45-.67-.45-1.63 0-.84.34-1.37.33-.53.88-.83.56-.3 1.24-.45.67-.15 1.35-.24.9-.11 1.46-.17.56-.07.82-.21.25-.15.25-.51v-.05q0-.95-.51-1.47-.51-.53-1.56-.53-1.08 0-1.69.47-.61.48-.86 1.01l-1.43-.51q.38-.89 1.02-1.39.64-.51 1.41-.71.76-.2 1.5-.2.48 0 1.09.11.62.12 1.2.46.58.35.96 1.04.38.7.38 1.87v6.47h-1.51v-1.33h-.07q-.16.32-.51.68-.36.37-.96.62-.59.26-1.45.26zm.23-1.36q.9 0 1.52-.35.61-.35.93-.91.31-.55.31-1.17V12.5q-.09.12-.41.21-.33.09-.75.16-.41.07-.81.12-.39.04-.63.08-.59.07-1.1.24-.51.17-.82.51-.31.33-.31.91 0 .78.59 1.18.58.4 1.48.4zm8.54-4.78v5.91h-1.51V7.62h1.46v1.53h.13q.34-.74 1.05-1.2.7-.46 1.81-.46 1 0 1.75.41.75.4 1.16 1.22.42.83.42 2.08v6.24h-1.51V11.3q0-1.16-.6-1.8-.6-.65-1.65-.65-.72 0-1.29.31-.56.31-.89.91-.33.6-.33 1.46zm10.54 5.91h-1.51V7.62h1.51v9.82zm-.74-11.46q-.45 0-.76-.3-.32-.3-.32-.72t.32-.72q.31-.3.76-.3.44 0 .75.3.32.3.32.72t-.32.72q-.31.3-.75.3zm7.49 11.66q-1.38 0-2.38-.65t-1.53-1.8q-.54-1.14-.54-2.61 0-1.5.55-2.64.55-1.15 1.55-1.8.99-.65 2.32-.65 1.04 0 1.87.39.83.38 1.36 1.07.53.69.66 1.61h-1.51q-.17-.67-.76-1.19-.6-.52-1.59-.52-.88 0-1.55.45-.66.46-1.03 1.29-.36.83-.36 1.94 0 1.14.36 1.98.36.84 1.02 1.31.66.47 1.56.47.59 0 1.06-.21.48-.2.82-.59.33-.38.47-.92h1.51q-.13.87-.63 1.57-.5.69-1.32 1.1-.83.4-1.91.4zm15.08 3.68q-1.09 0-1.88-.27-.78-.28-1.3-.73-.52-.45-.83-.96l1.2-.85q.2.27.52.62.31.35.86.61.54.25 1.43.25 1.19 0 1.96-.57.78-.58.78-1.8v-2h-.13q-.17.27-.47.66-.3.4-.87.7-.56.3-1.52.3-1.19 0-2.14-.56-.94-.56-1.48-1.63-.55-1.08-.55-2.61 0-1.51.53-2.63.53-1.12 1.48-1.74.94-.62 2.18-.62.96 0 1.53.32.56.31.87.71.3.4.47.66h.15V7.62h1.46v10.1q0 1.26-.58 2.06-.57.8-1.53 1.17-.96.37-2.14.37zm-.05-5.39q.91 0 1.54-.42.62-.41.95-1.19.32-.78.32-1.87 0-1.06-.32-1.87t-.94-1.27q-.63-.46-1.55-.46-.96 0-1.59.48-.64.49-.96 1.31-.31.81-.31 1.81 0 1.02.32 1.81.32.78.96 1.22.64.45 1.58.45zm8.57 1.51h-1.51V7.62h1.46V9.1h.1q.27-.73.97-1.18.7-.45 1.58-.45h.42q.25.01.38.02v1.54q-.08-.02-.35-.07-.27-.04-.57-.04-.72 0-1.28.3t-.88.82q-.32.52-.32 1.18v6.22zm9 .2q-1.42 0-2.45-.63-1.02-.63-1.58-1.76-.55-1.14-.55-2.64 0-1.51.55-2.67.56-1.15 1.55-1.8.99-.65 2.32-.65.77 0 1.52.26.75.25 1.36.82.61.58.98 1.52.36.94.36 2.31v.64h-7.57v-1.3h6.04q0-.84-.33-1.49t-.93-1.03q-.61-.37-1.43-.37-.9 0-1.55.44-.66.45-1.01 1.15-.35.71-.35 1.53v.87q0 1.11.39 1.88.38.77 1.07 1.17.69.4 1.61.4.59 0 1.07-.17.49-.17.84-.51.35-.35.54-.86l1.46.41q-.23.74-.77 1.3-.55.56-1.35.87-.8.31-1.79.31zm10.48 0q-1.42 0-2.45-.63-1.02-.63-1.57-1.76-.56-1.14-.56-2.64 0-1.51.56-2.67.55-1.15 1.54-1.8 1-.65 2.33-.65.76 0 1.51.26.75.25 1.36.82.62.58.98 1.52.36.94.36 2.31v.64h-7.56v-1.3h6.03q0-.84-.33-1.49t-.93-1.03q-.61-.37-1.42-.37-.91 0-1.56.44-.66.45-1.01 1.15-.35.71-.35 1.53v.87q0 1.11.39 1.88.38.77 1.08 1.17.69.4 1.6.4.59 0 1.08-.17.48-.17.83-.51.35-.35.54-.86l1.46.41q-.23.74-.77 1.3-.55.56-1.34.87-.8.31-1.8.31zm7.87-6.11v5.91h-1.5V7.62h1.45v1.53h.13q.35-.74 1.05-1.2.7-.46 1.81-.46 1 0 1.75.41.75.4 1.16 1.22.42.83.42 2.08v6.24h-1.51V11.3q0-1.16-.6-1.8-.6-.65-1.65-.65-.72 0-1.29.31-.56.31-.89.91-.33.6-.33 1.46zm18.06 9.79q-1.1 0-1.88-.27-.79-.28-1.31-.73-.52-.45-.83-.96l1.2-.85q.21.27.52.62.31.35.86.61.55.25 1.44.25 1.18 0 1.96-.57.77-.58.77-1.8v-2h-.13q-.16.27-.47.66-.3.4-.87.7-.56.3-1.52.3-1.19 0-2.13-.56t-1.49-1.63q-.55-1.08-.55-2.61 0-1.51.53-2.63.53-1.12 1.48-1.74.95-.62 2.19-.62.95 0 1.52.32.57.31.87.71.3.4.47.66h.15V7.62h1.46v10.1q0 1.26-.57 2.06t-1.54 1.17q-.96.37-2.13.37zm-.06-5.39q.91 0 1.54-.42.63-.41.95-1.19.33-.78.33-1.87 0-1.06-.32-1.87t-.95-1.27q-.62-.46-1.55-.46-.95 0-1.59.48-.64.49-.95 1.31-.32.81-.32 1.81 0 1.02.32 1.81.33.78.96 1.22.64.45 1.58.45zm11.05 1.71q-1.33 0-2.33-.63t-1.56-1.77q-.56-1.14-.56-2.66 0-1.53.56-2.68.56-1.14 1.56-1.78 1-.63 2.33-.63t2.33.63q1 .64 1.56 1.78.56 1.15.56 2.68 0 1.52-.56 2.66-.56 1.14-1.56 1.77-1 .63-2.33.63zm0-1.35q1.01 0 1.66-.52.65-.52.97-1.36.31-.85.31-1.83 0-.98-.31-1.83-.32-.86-.97-1.38-.65-.52-1.66-.52-1.01 0-1.66.52-.65.52-.97 1.38-.31.85-.31 1.83 0 .98.31 1.83.32.84.97 1.36.65.52 1.66.52zm10.74 1.35q-1.33 0-2.33-.63t-1.56-1.77q-.56-1.14-.56-2.66 0-1.53.56-2.68.56-1.14 1.56-1.78 1-.63 2.33-.63t2.33.63q1 .64 1.56 1.78.56 1.15.56 2.68 0 1.52-.56 2.66-.56 1.14-1.56 1.77-1 .63-2.33.63zm0-1.35q1.01 0 1.66-.52.65-.52.97-1.36.31-.85.31-1.83 0-.98-.31-1.83-.32-.86-.97-1.38-.65-.52-1.66-.52-1.01 0-1.66.52-.66.52-.97 1.38-.31.85-.31 1.83 0 .98.31 1.83.31.84.97 1.36.65.52 1.66.52zm10.46 1.35q-1.23 0-2.17-.62t-1.47-1.77q-.53-1.14-.53-2.7 0-1.54.53-2.68.53-1.14 1.48-1.76.94-.62 2.18-.62.96 0 1.52.32.56.31.86.71.29.4.46.66h.13V4.35h1.51v13.09h-1.46v-1.51h-.18q-.17.27-.47.67-.31.41-.88.73-.57.31-1.51.31zm.2-1.35q.91 0 1.53-.48.63-.48.96-1.32.32-.85.32-1.96 0-1.1-.32-1.93-.32-.83-.94-1.29-.63-.46-1.55-.46-.96 0-1.59.49-.64.48-.96 1.32-.31.83-.31 1.87 0 1.05.32 1.9.32.85.96 1.36.63.5 1.58.5zm8.77 1.15h-1.51V7.62h1.51v9.82zm-.74-11.46q-.44 0-.76-.3-.31-.3-.31-.72t.31-.72q.32-.3.76-.3t.76.3q.31.3.31.72t-.31.72q-.32.3-.76.3zm7.62 11.66q-1.42 0-2.45-.63-1.02-.63-1.58-1.76-.55-1.14-.55-2.64 0-1.51.55-2.67.56-1.15 1.55-1.8 1-.65 2.32-.65.77 0 1.52.26.75.25 1.36.82.61.58.98 1.52.36.94.36 2.31v.64h-7.56v-1.3h6.03q0-.84-.33-1.49t-.93-1.03q-.61-.37-1.43-.37-.9 0-1.55.44-.66.45-1.01 1.15-.35.71-.35 1.53v.87q0 1.11.39 1.88.38.77 1.07 1.17.69.4 1.61.4.59 0 1.08-.17.48-.17.83-.51.35-.35.54-.86l1.46.41q-.23.74-.77 1.3-.55.56-1.35.87-.79.31-1.79.31zm13.32-7.82l-1.36.38q-.12-.34-.37-.66t-.67-.53q-.42-.21-1.08-.21-.9 0-1.5.41-.59.41-.59 1.04 0 .57.4.89.41.33 1.28.54l1.46.36q1.32.32 1.96.98.65.65.65 1.68 0 .85-.48 1.51-.49.67-1.35 1.05-.86.38-2.01.38-1.5 0-2.48-.65-.99-.65-1.25-1.9l1.43-.36q.21.79.78 1.19.57.39 1.5.39 1.05 0 1.68-.45.62-.45.62-1.08 0-.51-.36-.86t-1.1-.52l-1.64-.39q-1.34-.32-1.97-.99-.63-.67-.63-1.69 0-.83.47-1.47t1.28-1q.82-.37 1.85-.37 1.46 0 2.29.64.84.64 1.19 1.69z" data-horizontal-grow="left" data-vertical-center="false" fill="#52918e" font-size="18" font-weight="400" font-family="Inter" dominant-baseline="hanging"/></svg><svg data-layer-type="text" x="263.5" y="260.77" viewBox=".65 7.7 145.33 25.89" height="25.89" width="145.33" style="position:absolute"><path d="M1.69 27.04h2.49V14.22H1.62q-.61 0-.86-1.55-.11-.75-.11-1.55 0-.79.11-1.54.25-1.55.86-1.55h12.1q.61 0 .82 1.55.15.75.15 1.54 0 .8-.15 1.55-.21 1.55-.82 1.55H11.3v12.82h2.52q.62 0 .87 1.54.14.76.14 1.55t-.14 1.55q-.25 1.55-.87 1.55H1.69q-.61 0-.83-1.55-.14-.76-.14-1.55t.14-1.55q.22-1.54.83-1.54zm20.45 5.43L15.84 8.5q0-.18 1.57-.35 1.56-.16 2.57-.16 4 0 4.18 1.05l3.09 15.84 2.92-15.84q.21-1.05 4.46-1.05 1.05 0 2.63.15 1.58.14 1.58.32l-6.37 23.83q-.14.58-2.12.76-3.06.32-5.56.12-2.51-.19-2.65-.7zm32.22-6.77l.07-4.89q0-.51 1.05-.67 1.04-.16 1.72-.16l1.41.11q1.37.21 1.37.75l-.15 11.27q-.72.51-2.9.99-2.17.49-4.98.49-5.22 0-8.43-3.39-3.2-3.38-3.2-9.93 0-5.58 3.13-9.07 3.13-3.5 8.68-3.5 2.52 0 4.55.49 2.04.49 2.79 1.31.04.29.04 1.08 0 .8-.54 2.25-.54 1.46-1.23 2.18-.68.72-.99.72-.3 0-.64-.27-.35-.27-1.35-.57-1.01-.31-1.95-.31-2.23 0-3.62 1.44-1.38 1.44-1.38 4.46 0 3.03 1.42 4.59 1.42 1.57 3.28 1.57 1.85 0 1.85-.94zm16.74-2.55v10.04q0 .25-3.28.25-3.27-.07-3.27-.28V21.2h-.97q-.58 0-.92-.7-.34-.7-.34-1.74 0-3.89 2.3-3.89 1.62 0 2.7.99t1.08 2.25q.76-1.48 2.03-2.36 1.28-.88 2.61-.88 2.09 0 2.52 1.08.11.29.11.84 0 .56-.34 2t-.7 2.09q-.36.65-.43.65-.08 0-.67-.27-.59-.27-1.06-.27-1.37 0-1.37 2.16zm19.98 9.11q-2.27 1.33-5.83 1.33-3.57 0-6.01-2.43-2.45-2.43-2.45-6.73 0-4.31 2.36-6.93 2.35-2.63 5.95-2.63t5.57 1.83q1.96 1.84 1.96 4.47 0 5.83-6.7 5.83h-2.48q0 1.08.59 1.49.6.42 1.75.42 2.52 0 4.79-1.15.03-.04.32.5.86 1.55.86 2.61 0 1.06-.68 1.39zm-4.5-10.41q0-1.51-1.48-1.51-.68 0-1.17.41-.48.42-.48 1.21v1.12h1.94q1.19 0 1.19-1.23zm22 10.41q-2.27 1.33-5.84 1.33-3.56 0-6.01-2.43-2.45-2.43-2.45-6.73 0-4.31 2.36-6.93 2.36-2.63 5.96-2.63t5.56 1.83q1.96 1.84 1.96 4.47 0 5.83-6.69 5.83h-2.49q0 1.08.6 1.49.59.42 1.74.42 2.52 0 4.79-1.15.04-.04.33.5.86 1.55.86 2.61 0 1.06-.68 1.39zm-4.5-10.41q0-1.51-1.48-1.51-.68 0-1.17.41-.49.42-.49 1.21v1.12h1.95q1.19 0 1.19-1.23zm15.91-.39v11.55q0 .25-2.59.25-3.6-.1-3.6-.39V21.2h-.94q-.94 0-1.22-1.58-.08-.47-.08-.94 0-1.11.44-2.23.64-1.58 2.01-1.58 1.37 0 2.45.65 1.08.64 1.44 1.29 2.27-1.94 5.4-1.94 3.13 0 4.54 1.69 1.4 1.69 1.4 5.54v10.8q0 .44-3.08.44t-3.08-.44V22.5q0-1.8-1.26-1.8-.36 0-1 .31-.65.3-.83.45zm13.07 5.29q2.91 1.76 4.6 1.76 1.08 0 1.08-.75 0-.54-1.87-1.41-4.5-1.83-4.5-6.01 0-2.66 1.95-4.07 1.94-1.4 4.66-1.4t4.61.57q1.89.58 1.89 1.52 0 .79-.78 2.08-.77 1.3-1.06 1.41-1.55-.87-3.35-.87-.97 0-.97.69 0 .43.38.74.38.3 1.38.75 1.01.45 1.68.81.66.36 1.49 1.01 1.73 1.37 1.73 3.56 0 2.88-1.91 4.67-1.91 1.78-5.76 1.78-2.55 0-4.64-.87-2.09-.86-2.09-2.37 0-1.01.49-2.13.48-1.11.99-1.47z" data-horizontal-grow="left" data-vertical-center="false" fill="#52918e" font-size="36" font-weight="400" font-family="Lilita One" dominant-baseline="hanging"/></svg></svg>