<svg class="prefix__variation-svg prefix__fade-enter-done" viewBox="-36.09 66.42 647.18 405.66" xmlns="http://www.w3.org/2000/svg" xmlns:xlink="http://www.w3.org/1999/xlink"><image height="149" width="140.085" y="136.42" x="217.46" preserveAspectRatio="xMinYMin" href="https://fiverr-res.cloudinary.com/image/upload/f_png,q_auto,t_makers_project_variation_preview/v1/secured-attachments/makers_project_variation/preview_file/eab950798af8083e1b6dfda84cb6f0e6-1619133347/5faff9c7635e5a00154ea169.svg?__cld_token__=exp=1669647431~hmac=f5e6a4bd901384f785c2d1408ad3a1c1af1a85a862fc7fab072f9369dbebf333" xlink:href="https://fiverr-res.cloudinary.com/image/upload/f_png,q_auto,t_makers_project_variation_preview/v1/secured-attachments/makers_project_variation/preview_file/eab950798af8083e1b6dfda84cb6f0e6-1619133347/5faff9c7635e5a00154ea169.svg?__cld_token__=exp=1669647431~hmac=f5e6a4bd901384f785c2d1408ad3a1c1af1a85a862fc7fab072f9369dbebf333" style="position:absolute"/><svg data-layer-type="text" y="387.04" viewBox="2.21 5.46 507.18 15.04" x="33.91" height="15.04" width="507.18" style="position:absolute"><path d="M4.31 20.33h-2.1V5.63h5.73q1.93 0 3.3.61 1.36.61 2.1 1.76.73 1.16.73 2.75 0 1.6-.73 2.74-.74 1.15-2.1 1.77-1.37.62-3.3.62H3.36l.95-.99v5.44zm0-13.92v8.69l-.95-1.05h4.52q2.01 0 3.05-.86t1.04-2.44q0-1.57-1.04-2.43-1.04-.86-3.05-.86H3.36l.95-1.05zM29.29 20.5q-2.9 0-4.56-1.66-1.66-1.66-1.66-4.85V5.63h2.1v8.27q0 2.46 1.08 3.59 1.09 1.14 3.06 1.14 1.99 0 3.08-1.14 1.08-1.13 1.08-3.59V5.63h2.04v8.36q0 3.19-1.65 4.85-1.65 1.66-4.57 1.66zm18.62-.17h-2.1V5.63h5.73q1.94 0 3.3.61 1.37.61 2.1 1.76.74 1.16.74 2.75 0 1.6-.74 2.74-.73 1.15-2.1 1.76-1.36.61-3.3.61h-4.57l.94-.97v5.44zm10.02 0h-2.29l-3.74-5.34h2.25l3.78 5.34zM47.91 6.41v8.69l-.94-1.03h4.51q2.02 0 3.06-.87t1.04-2.45q0-1.57-1.04-2.43-1.04-.86-3.06-.86h-4.51l.94-1.05zm21.08 7.35v-1.79h7.56v1.79h-7.56zm.19-6.3V18.5h8.57v1.83H67.08V5.63h10.37v1.83h-8.27zm36.25 13.04q-1.68 0-3.12-.57-1.43-.57-2.48-1.59-1.05-1.01-1.64-2.38-.59-1.36-.59-2.98 0-1.62.59-2.98.59-1.37 1.64-2.39 1.05-1.02 2.47-1.58 1.43-.57 3.13-.57 1.68 0 3.1.56 1.42.55 2.48 1.57t1.64 2.39q.57 1.36.57 3t-.57 3q-.58 1.37-1.64 2.38-1.06 1.02-2.48 1.58t-3.1.56zm0-1.87q1.22 0 2.26-.42 1.04-.42 1.81-1.19.76-.77 1.19-1.79.43-1.03.43-2.25t-.43-2.25q-.43-1.03-1.19-1.79-.77-.77-1.81-1.19-1.04-.42-2.26-.42-1.24 0-2.28.42-1.04.42-1.81 1.19-.78.76-1.21 1.79-.43 1.03-.43 2.25t.43 2.25q.43 1.02 1.21 1.79.77.77 1.81 1.19 1.04.42 2.28.42zm19.11 1.7h-2.1V5.63h5.73q1.93 0 3.3.61 1.36.61 2.1 1.76.73 1.16.73 2.75 0 1.6-.73 2.74-.74 1.15-2.1 1.76-1.37.61-3.3.61h-4.58l.95-.97v5.44zm10.01 0h-2.29l-3.73-5.34h2.24l3.78 5.34zM124.54 6.41v8.69l-.95-1.03h4.52q2.01 0 3.05-.87t1.04-2.45q0-1.57-1.04-2.43-1.04-.86-3.05-.86h-4.52l.95-1.05zm25.8 14.09q-1.7 0-3.13-.56t-2.48-1.58q-1.05-1.01-1.64-2.38-.58-1.36-.58-3t.58-3q.59-1.37 1.65-2.39t2.49-1.57q1.43-.56 3.15-.56 1.74 0 3.19.57 1.45.56 2.46 1.7l-1.3 1.3q-.9-.88-1.97-1.29-1.06-.41-2.29-.41-1.26 0-2.35.42-1.08.42-1.87 1.18-.78.75-1.21 1.79-.43 1.04-.43 2.26 0 1.2.43 2.23.43 1.04 1.21 1.81.79.77 1.86 1.19 1.07.42 2.33.42 1.18 0 2.26-.37 1.08-.37 2.01-1.23l1.19 1.6q-1.09.92-2.55 1.39-1.46.48-3.01.48zm5.56-1.87l-2.01-.28v-5.46h2.01v5.74zm9.95 1.7h-2.16l6.66-14.7h2.08l6.67 14.7h-2.2L170.96 6.8h.84l-5.95 13.53zm10.12-3.68h-9.45l.57-1.68h8.28l.6 1.68zm13.42 3.68h-2.1V5.63h1.72l9.72 12.07h-.9V5.63h2.1v14.7h-1.72l-9.73-12.08h.91v12.08zm23.05 0h-2.1V5.63h2.1v14.7zm16.98.17q-1.68 0-3.1-.56-1.41-.56-2.45-1.58-1.04-1.01-1.63-2.38-.59-1.36-.59-3t.59-3q.59-1.37 1.64-2.39 1.05-1.02 2.47-1.57 1.41-.56 3.09-.56 1.7 0 3.14.58 1.44.58 2.45 1.71l-1.37 1.32q-.84-.88-1.89-1.31-1.05-.43-2.24-.43-1.24 0-2.3.42-1.06.42-1.84 1.18-.78.75-1.21 1.79-.43 1.04-.43 2.26 0 1.22.43 2.26.43 1.04 1.21 1.79.78.76 1.84 1.18 1.06.42 2.3.42 1.19 0 2.24-.43 1.05-.43 1.89-1.34l1.37 1.33q-1.01 1.13-2.45 1.72-1.44.59-3.16.59zm32.9 0q-1.7 0-3.13-.56t-2.48-1.58q-1.05-1.01-1.64-2.38-.59-1.36-.59-3t.59-3q.59-1.37 1.65-2.39t2.49-1.57q1.43-.56 3.15-.56 1.74 0 3.19.57 1.45.56 2.46 1.7l-1.3 1.3q-.91-.88-1.97-1.29-1.06-.41-2.3-.41-1.26 0-2.34.42-1.08.42-1.87 1.18-.79.75-1.22 1.79-.43 1.04-.43 2.26 0 1.2.43 2.23.43 1.04 1.22 1.81t1.86 1.19q1.07.42 2.33.42 1.18 0 2.26-.37 1.08-.37 2.01-1.23l1.19 1.6q-1.09.92-2.55 1.39-1.46.48-3.01.48zm5.56-1.87l-2.01-.28v-5.46h2.01v5.74zm12.11 1.7h-2.1V5.63h5.74q1.93 0 3.29.61 1.37.61 2.1 1.76.74 1.16.74 2.75 0 1.6-.74 2.74-.73 1.15-2.1 1.76-1.36.61-3.29.61h-4.58l.94-.97v5.44zm10.02 0h-2.29l-3.74-5.34h2.25l3.78 5.34zM279.99 6.41v8.69l-.94-1.03h4.51q2.02 0 3.06-.87t1.04-2.45q0-1.57-1.04-2.43-1.04-.86-3.06-.86h-4.51l.94-1.05zm21.08 7.35v-1.79h7.56v1.79h-7.56zm.19-6.3V18.5h8.57v1.83h-10.67V5.63h10.37v1.83h-8.27zm19.88 6.3v-1.79h7.56v1.79h-7.56zm.19-6.3V18.5h8.57v1.83h-10.67V5.63h10.37v1.83h-8.27zm20.07 12.87h-2.1V5.63h1.72l9.72 12.07h-.9V5.63h2.1v14.7h-1.72L340.5 8.25h.9v12.08zm39.24.17q-1.7 0-3.13-.56t-2.48-1.58q-1.05-1.01-1.64-2.38-.59-1.36-.59-3t.59-3q.59-1.37 1.65-2.39t2.49-1.57q1.43-.56 3.15-.56 1.74 0 3.19.57 1.45.56 2.46 1.7l-1.3 1.3q-.91-.88-1.97-1.29-1.06-.41-2.3-.41-1.26 0-2.34.42-1.08.42-1.87 1.18-.79.75-1.22 1.79-.43 1.04-.43 2.26 0 1.2.43 2.23.43 1.04 1.22 1.81t1.86 1.19q1.07.42 2.33.42 1.18 0 2.26-.37 1.08-.37 2-1.23l1.2 1.6q-1.09.92-2.55 1.39-1.46.48-3.01.48zm5.56-1.87l-2.01-.28v-5.46h2.01v5.74zm16.65 1.87q-1.68 0-3.12-.57-1.44-.57-2.49-1.59-1.05-1.01-1.64-2.38-.58-1.36-.58-2.98 0-1.62.58-2.98.59-1.37 1.64-2.39 1.05-1.02 2.48-1.58 1.43-.57 3.13-.57 1.68 0 3.1.56 1.41.55 2.47 1.57 1.06 1.02 1.64 2.39.58 1.36.58 3t-.58 3q-.58 1.37-1.64 2.38-1.06 1.02-2.47 1.58-1.42.56-3.1.56zm0-1.87q1.22 0 2.26-.42 1.04-.42 1.8-1.19.77-.77 1.2-1.79.43-1.03.43-2.25t-.43-2.25q-.43-1.03-1.2-1.79-.76-.77-1.8-1.19-1.04-.42-2.26-.42-1.24 0-2.28.42-1.04.42-1.82 1.19-.77.76-1.2 1.79-.43 1.03-.43 2.25t.43 2.25q.43 1.02 1.2 1.79.78.77 1.82 1.19 1.04.42 2.28.42zm23.64 1.87q-1.68 0-3.12-.57-1.44-.57-2.49-1.59-1.05-1.01-1.64-2.38-.58-1.36-.58-2.98 0-1.62.58-2.98.59-1.37 1.64-2.39 1.05-1.02 2.48-1.58 1.43-.57 3.13-.57 1.68 0 3.1.56 1.41.55 2.47 1.57 1.06 1.02 1.64 2.39.58 1.36.58 3t-.58 3q-.58 1.37-1.64 2.38-1.06 1.02-2.47 1.58-1.42.56-3.1.56zm0-1.87q1.22 0 2.26-.42 1.04-.42 1.8-1.19.77-.77 1.2-1.79.43-1.03.43-2.25t-.43-2.25q-.43-1.03-1.2-1.79-.76-.77-1.8-1.19-1.04-.42-2.26-.42-1.24 0-2.28.42-1.04.42-1.82 1.19-.77.76-1.2 1.79-.43 1.03-.43 2.25t.43 2.25q.43 1.02 1.2 1.79.78.77 1.82 1.19 1.04.42 2.28.42zm23.2 1.7h-6.2V5.63h6.2q2.35 0 4.15.92 1.79.93 2.79 2.59 1 1.65 1 3.84 0 2.18-1 3.84-1 1.66-2.79 2.58-1.8.93-4.15.93zm-4.1-12.87V18.5h3.97q1.83 0 3.16-.69 1.34-.69 2.07-1.94.74-1.25.74-2.89 0-1.66-.74-2.9-.73-1.24-2.07-1.93-1.33-.69-3.16-.69h-3.97zm23.35 12.87h-2.1V5.63h2.1v14.7zm12.32-6.57v-1.79h7.56v1.79h-7.56zm.19-6.3V18.5h8.57v1.83h-10.67V5.63h10.37v1.83h-8.27zM503.7 20.5q-1.68 0-3.21-.52-1.53-.51-2.42-1.33l.78-1.64q.84.74 2.14 1.22 1.31.48 2.71.48 1.28 0 2.08-.29.8-.3 1.18-.81.38-.52.38-1.17 0-.75-.5-1.21-.49-.47-1.28-.75t-1.73-.49q-.95-.21-1.9-.5-.96-.28-1.74-.72-.79-.44-1.28-1.19-.48-.74-.48-1.92 0-1.13.6-2.09.6-.95 1.85-1.53 1.25-.58 3.18-.58 1.28 0 2.54.34 1.26.33 2.18.96l-.69 1.68q-.94-.63-1.99-.91t-2.04-.28q-1.24 0-2.04.31-.8.32-1.16.84-.37.53-.37 1.18 0 .77.49 1.24.5.46 1.28.73.79.27 1.74.49.94.22 1.9.5.95.27 1.74.71.79.44 1.27 1.18.48.73.48 1.89 0 1.11-.61 2.07-.6.95-1.87 1.53-1.28.58-3.21.58z" data-horizontal-grow="center" fill="#fff" font-size="21" font-weight="500" font-family="Montserrat" dominant-baseline="hanging" letter-spacing="6"/></svg><svg data-layer-type="text" y="312.96" viewBox="6.3 15.6 266.1 42.96" x="154.45" height="42.96" width="266.1" style="position:absolute"><path d="M12.3 58.08h-6v-42h6v42zm30.24 0H36.6l-18.48-42h6.48l16.98 38.76h-3.72l17.1-38.76h6l-18.42 42zm42.3.48q-4.86 0-8.94-1.59-4.08-1.59-7.08-4.5t-4.68-6.81q-1.68-3.9-1.68-8.58t1.68-8.58q1.68-3.9 4.71-6.81 3.03-2.91 7.11-4.5 4.08-1.59 9-1.59 4.98 0 9.12 1.62 4.14 1.62 7.02 4.86l-3.72 3.72q-2.58-2.52-5.61-3.69-3.03-1.17-6.57-1.17-3.6 0-6.69 1.2-3.09 1.2-5.34 3.36t-3.48 5.13q-1.23 2.97-1.23 6.45 0 3.42 1.23 6.39 1.23 2.97 3.48 5.16t5.31 3.39q3.06 1.2 6.66 1.2 3.36 0 6.45-1.05 3.09-1.05 5.73-3.51l3.42 4.56q-3.12 2.64-7.29 3.99t-8.61 1.35zm15.9-5.34l-5.76-.78v-15.6h5.76v16.38zm16.38 4.86h-5.76v-31.8h5.52v8.64l-.54-2.16q1.32-3.3 4.44-5.04 3.12-1.74 7.68-1.74v5.58q-.36-.06-.69-.06h-.63q-4.62 0-7.32 2.76t-2.7 7.98v15.84zm32.28.36q-5.1 0-8.97-2.1-3.87-2.1-6-5.76-2.13-3.66-2.13-8.4t2.07-8.4q2.07-3.66 5.7-5.73 3.63-2.07 8.19-2.07 4.62 0 8.16 2.04t5.55 5.73q2.01 3.69 2.01 8.61 0 .36-.03.84t-.09.9H136.8v-4.14h24.06l-2.34 1.44q.06-3.06-1.26-5.46t-3.63-3.75q-2.31-1.35-5.37-1.35-3 0-5.34 1.35t-3.66 3.78q-1.32 2.43-1.32 5.55v.96q0 3.18 1.47 5.67 1.47 2.49 4.11 3.87 2.64 1.38 6.06 1.38 2.82 0 5.13-.96t4.05-2.88l3.18 3.72q-2.16 2.52-5.37 3.84-3.21 1.32-7.17 1.32zm36.72 0q-5.1 0-8.97-2.1-3.87-2.1-6-5.76-2.13-3.66-2.13-8.4t2.07-8.4q2.07-3.66 5.7-5.73 3.63-2.07 8.19-2.07 4.62 0 8.16 2.04t5.55 5.73q2.01 3.69 2.01 8.61 0 .36-.03.84t-.09.9h-27.06v-4.14h24.06l-2.34 1.44q.06-3.06-1.26-5.46t-3.63-3.75q-2.31-1.35-5.37-1.35-3 0-5.34 1.35t-3.66 3.78q-1.32 2.43-1.32 5.55v.96q0 3.18 1.47 5.67 1.47 2.49 4.11 3.87 2.64 1.38 6.06 1.38 2.82 0 5.13-.96t4.05-2.88l3.18 3.72q-2.16 2.52-5.37 3.84-3.21 1.32-7.17 1.32zm39.54-32.46q3.9 0 6.87 1.5t4.65 4.56q1.68 3.06 1.68 7.74v18.3h-5.76V40.44q0-4.62-2.25-6.96t-6.33-2.34q-3.06 0-5.34 1.2t-3.51 3.54q-1.23 2.34-1.23 5.82v16.38h-5.76v-31.8h5.52v8.58l-.9-2.28q1.56-3.12 4.8-4.86 3.24-1.74 7.56-1.74zm33 32.46q-3.96 0-7.53-1.08-3.57-1.08-5.61-2.64l2.4-4.56q2.04 1.38 5.04 2.34t6.12.96q4.02 0 5.79-1.14 1.77-1.14 1.77-3.18 0-1.5-1.08-2.34-1.08-.84-2.85-1.26-1.77-.42-3.93-.75t-4.32-.84q-2.16-.51-3.96-1.44-1.8-.93-2.88-2.58-1.08-1.65-1.08-4.41 0-2.88 1.62-5.04t4.59-3.33q2.97-1.17 7.05-1.17 3.12 0 6.33.75t5.25 2.13l-2.46 4.56q-2.16-1.44-4.5-1.98t-4.68-.54q-3.78 0-5.64 1.23-1.86 1.23-1.86 3.15 0 1.62 1.11 2.49 1.11.87 2.88 1.35 1.77.48 3.93.81 2.16.33 4.32.84t3.93 1.41q1.77.9 2.88 2.52 1.11 1.62 1.11 4.32 0 2.88-1.68 4.98-1.68 2.1-4.74 3.27-3.06 1.17-7.32 1.17z" data-horizontal-grow="center" fill="#fff" font-size="60" font-weight="500" font-family="Montserrat" dominant-baseline="hanging"/></svg></svg>