<svg class="prefix__variation-svg prefix__fade-enter-done" viewBox="67.015 50.815 440.971 450.976" xmlns="http://www.w3.org/2000/svg" xmlns:xlink="http://www.w3.org/1999/xlink"><svg data-layer-type="shape" x="151" y="120.815" xmlns="http://www.w3.org/2000/svg" preserveAspectRatio="none" height="107" width="104" style="position:absolute;--darkreader-inline-fill:#ffd238" fill="#ffcf2c" fill-opacity=".47"><rect rx="50%" ry="50%" y="1" x="1" height="105" width="102" style="--darkreader-inline-stroke:#e8e6e3"/></svg><image height="139.686" width="300.971" y="217.658" x="137.015" preserveAspectRatio="xMinYMin" href="https://fiverr-res.cloudinary.com/image/upload/f_png,q_auto,t_makers_project_variation_preview/v1/secured-attachments/makers_project_variation/preview_file/fe6804bcc6c0249ce50ad39d8e439c56-1611671475/601026b36da400001438275f.svg?__cld_token__=exp=1669647364~hmac=89dd5de7c11d8aafc385c3ed184abba7a11609cfdfc358e80fc4b93afec4d968" xlink:href="https://fiverr-res.cloudinary.com/image/upload/f_png,q_auto,t_makers_project_variation_preview/v1/secured-attachments/makers_project_variation/preview_file/fe6804bcc6c0249ce50ad39d8e439c56-1611671475/601026b36da400001438275f.svg?__cld_token__=exp=1669647364~hmac=89dd5de7c11d8aafc385c3ed184abba7a11609cfdfc358e80fc4b93afec4d968" style="position:absolute"/><svg data-layer-type="text" y="364" viewBox="-107.126 -64.113 214.687 67.791" x="180.163" height="67.791" width="214.687" style="position:absolute"><g data-horizontal-grow="center" style="--darkreader-inline-fill:#e8e6e3" font-size="16" font-weight="400" font-family="Fredoka One" dominant-baseline="hanging"><path d="M-94.486-55.7q-.45.829-1.294 1.436-.844.608-1.765.766-.928.15-1.71-.099-1.608-.469-2.444-1.63l-1.169-1.622-1.468 1.058q-.292.21-.458.305-.164.08-.429.123-.483.065-1.08-.763-.654-.908-.286-1.407.16-.24.615-.567l7.206-5.19q.3-.215.458-.304.172-.087.442-.122.478-.073 1.074.755l2.004 2.783q.824 1.145.76 2.818-.012.822-.456 1.66zm-4.905-1.164q.28.39.842.552.559.177 1.127-.232.576-.415.593-1.007.023-.583-.269-.989l-1.169-1.623-2.304 1.66 1.18 1.639zM-97.33-44.424q-1.06-1.212-.838-2.827.22-1.601 1.545-2.76l2.108-1.843q.286-.25.435-.354.155-.096.408-.17.468-.118 1.147.657.737.843.403 1.388-.13.246-.552.615l-2.107 1.843q-.49.428-.525.95-.028.53.387 1.004.414.474.965.51.549.052 1.016-.356l2.138-1.87q.27-.237.427-.347.148-.103.415-.163.454-.119 1.126.649.664.76.492 1.216-.108.241-.238.381-.116.141-.394.385l-4.26 3.726q-.272.237-.427.333-.149.103-.408.157-.466.09-1.118-.656-.645-.738-.504-1.154.098-.298.392-.555-.137.027-.432-.007-.303-.028-.554-.087-.626-.184-1.047-.665zM-82-40.89q.144.281.127.585-.018.305-.381.677-.357.364-.997.591-.641.213-1.05-.185-.207-.203-.309-.47-.102-.282-.41-.582t-.789-.352q-.481-.036-.782.271l-2.347 2.404q-.259.265-.406.373-.14.115-.4.196-.466.132-1.188-.573-.551-.538-.599-.962-.025-.346.275-.696l.321-.33 3.926-4.02q.259-.265.399-.38.154-.115.387-.195.457-.154 1.194.565.687.671.6 1.103-.053.298-.241.491.134-.023.36-.025.22-.01.758.14.547.155.819.42.264.26.423.47.15.203.31.484zM-76.217-31.4q-.63.75-1.307.796-.677.046-1.13-.333l-2.905-2.433q-.289.345-.082.923.206.564.613.904.713.597 1.241.792l.175.055q.408.12.6.28.399.335.212 1.118-.115.464-.307.694-.919 1.097-3.533-1.093-.904-.758-1.346-1.663-.442-.905-.403-1.746.06-1.645 1.088-2.872 1.29-1.54 3.064-1.633 1.781-.087 3.276 1.165 1.702 1.426 1.491 3.297-.111.99-.747 1.749zm-4.434-3.101l1.541 1.29q.468.392.795.001.238-.283.17-.64-.073-.348-.471-.682-.399-.334-1.06-.34-.667.003-.975.37zM-70.92-26.244q1.035-1.618 2.838-1.948 1.805-.317 3.263.615 1.448.927 1.9 2.689.452 1.76-.582 3.378-.712 1.112-1.854 1.616-1.136.496-2.226.38-1.084-.123-1.977-.695-.892-.571-1.446-1.543-.554-.971-.582-2.189-.023-1.225.667-2.303zm2.194 2.768q.228.61.666.89.446.285 1.108.234.663-.051 1.088-.717.42-.657.204-1.246-.202-.593-.69-.906-.49-.312-1.118-.24-.636.068-1.057.725-.415.649-.2 1.26zM-54.185-21.394q.217.23.285.527.068.297-.177.755-.24.45-.793.847-.556.383-1.059.114-.256-.137-.428-.365-.177-.242-.556-.445-.38-.202-.856-.117-.473.099-.675.478l-1.584 2.963q-.175.327-.286.471-.102.15-.33.3-.41.257-1.3-.219-.68-.363-.843-.756-.121-.326.07-.746l.216-.405 2.65-4.957q.174-.326.276-.475.116-.154.317-.296.397-.275 1.305.21.847.453.884.892.032.3-.095.539.122-.06.339-.125.207-.07.767-.078.568-.002.903.177.326.175.537.332.202.154.433.379zM-50.416-10.837l.193-.44q-.87.491-2.088-.043-1.218-.535-1.79-2.119-.571-1.583.088-3.085.655-1.492 2.221-2.148 1.566-.656 2.838-.097.495.217.827.581.331.364.418.588.083.211.114.389.227-.392.575-.49.35-.098.917.15.577.254.797.45.225.207.243.466.017.259-.028.436-.05.164-.198.502l-2.666 6.071q-.74 1.685-2.362 2.196-1.626.52-3.091-.124-1.117-.49-1.887-1.473-.77-.982-.577-1.421.253-.577.885-.824.408-.181.616-.232.208-.05.409.038.201.088.345.359.464.859 1.288 1.22.558.246 1.1-.041.54-.287.813-.91zm-1.092-4.576q-.21.476-.012 1.022.21.54.75.777.532.233 1.049.001.526-.227.73-.694.202-.458.04-1.01-.162-.551-.73-.8-.577-.254-1.097-.013-.521.241-.73.717zM-37.34-13.378q.379-.812 1.488-.44.588.197.843.378.263.193.3.46.037.265 0 .442-.033.19-.15.54l-1.782 5.31q-.114.34-.203.511-.076.165-.257.357-.352.325-1.176.049-.825-.277-1.04-.581-.208-.291-.122-.706-.83.619-2.147.177-1.308-.44-2.033-2.022-.718-1.57-.187-3.153.532-1.583 2.06-2.4 1.53-.816 2.885-.36.512.171.875.504.366.323.474.538.12.21.173.396zm-3.817 2.231q-.169.503.096 1.035.252.538.811.725.569.191 1.075-.092.51-.293.675-.786.166-.493-.054-1.031-.208-.545-.805-.745-.607-.204-1.12.099-.51.293-.678.795zM-27.237-11.548q1.557.368 2.308 1.799.758 1.443.354 3.156l-.647 2.735q-.085.36-.155.528-.063.18-.221.37-.323.365-1.316.13-1.109-.262-1.139-.875-.035-.286.09-.812l.648-2.744q.151-.642-.136-1.08-.275-.445-.888-.59-.623-.147-1.09.133-.469.29-.611.893l-.651 2.754q-.085.36-.146.53-.073.179-.25.363-.294.373-1.296.136-.983-.233-1.098-.702-.052-.258-.04-.44.024-.19.107-.54l1.304-5.518q.08-.341.141-.512.073-.178.25-.362.307-.339 1.29-.106.943.223 1.082.636.094.3.006.67.084-.094.356-.246.263-.153.495-.222.61-.236 1.253-.084zM-22.497-3.403l.929-5.532q.06-.365.112-.55.06-.172.208-.39.286-.378 1.302-.207.76.127 1.029.456.23.262.163.717-.007.161-.058.467l-.927 5.523q-.062.365-.111.539-.06.172-.228.388-.266.38-1.282.21-.996-.167-1.142-.628-.069-.255-.068-.437.008-.171.073-.556zm4.014-8.026q-.156.207-.469.256-.32.038-.813-.045-.493-.083-.784-.223-.28-.148-.358-.405-.079-.256-.079-.439.012-.19.073-.555.06-.355.111-.54.06-.172.206-.38.288-.388 1.304-.218.996.168 1.122.625.089.258.087.45-.01.181-.071.546-.062.365-.111.54-.061.181-.218.388zM-14.232-5.032q-.073.676.334 1.102.406.426.904.48.497.054.966-.197.47-.251.748-.221.478.051 1.062.97.318.506.28.864-.066.607-.998 1.04-.973.538-2.296.395-1.481-.16-2.728-1.37-.602-.579-.917-1.478-.326-.9-.215-1.924.11-1.024.618-1.814.498-.791 1.209-1.227 1.436-.911 2.927-.75.607.065 1.155.295.559.231.81.42l.241.186q.268.22.415.347.374.362.33.77-.044.407-.427.88-.671.812-1.198.755-.298-.032-.818-.44-.259-.3-.796-.358-.527-.057-1.035.27-.498.33-.57 1.005zM3.237-.616l-.007-.48q-.588.809-1.918.829-1.33.02-2.508-1.182-1.178-1.203-1.203-2.842-.024-1.63 1.127-2.878 1.151-1.247 2.541-1.268.54-.008.993.185.453.193.625.36.163.158.265.306.043-.45.32-.684.276-.235.896-.244.63-.01.911.076.292.096.415.324.124.228.157.408.022.17.028.54l.1 6.629q.028 1.84-1.235 2.979Q3.48 3.59 1.88 3.615q-1.22.018-2.329-.555-1.108-.573-1.116-1.053-.01-.63.464-1.117.295-.335.463-.467Q-.47.29-.25.287-.03.283.213.47q.78.588 1.68.574.61-.009.982-.494.373-.486.362-1.166zM.341-4.323q.008.52.414.934.416.404 1.006.395.58-.009.954-.434.383-.426.376-.936-.008-.5-.384-.935-.377-.434-.997-.425-.63.01-1.003.446-.374.435-.366.955zM14.052-9.084q.308.071.529.282.22.21.268.728.047.508-.196 1.143-.253.626-.82.679-.29.027-.56-.069-.28-.105-.708-.065-.429.04-.78.373-.34.343-.3.771l.31 3.346q.034.369.02.55-.002.182-.11.433-.2.44-1.206.533-.767.07-1.12-.168-.28-.205-.352-.66l-.043-.458-.517-5.596q-.035-.368-.031-.55.012-.192.101-.42.18-.45 1.205-.544.956-.089 1.23.258.192.233.217.502.07-.117.214-.291.134-.173.597-.487.473-.315.852-.35.368-.034.63-.018.253.016.57.078zM24.873-7.674q.164.966-.24 1.511-.404.546-.986.645l-3.736.636q.075.443.65.66.563.208 1.085.12.917-.156 1.408-.433l.156-.097q.355-.233.602-.275.513-.087.988.562.28.389.33.685.24 1.41-3.122 1.981-1.163.198-2.14-.052-.975-.25-1.59-.825-1.214-1.112-1.482-2.69-.337-1.98.741-3.392 1.089-1.412 3.011-1.74 2.189-.372 3.477 1.002.682.726.848 1.702zm-5.235 1.367l1.982-.337q.6-.102.515-.605-.062-.365-.376-.545-.313-.17-.826-.082-.512.087-.945.586-.43.51-.35.983zM35.36-10.308q.247.949-.108 1.527-.355.579-.926.728l-3.666.96q.113.435.705.6.579.16 1.091.025.9-.235 1.365-.553l.147-.11q.334-.264.576-.327.503-.132 1.033.473.312.363.388.654.362 1.383-2.937 2.246-1.141.299-2.135.135-.994-.164-1.657-.683-1.306-1.002-1.711-2.55-.509-1.944.443-3.444.96-1.502 2.847-1.996 2.148-.562 3.551.694.743.664.993 1.621zm-5.096 1.82l1.944-.51q.59-.154.461-.647-.093-.358-.423-.51-.326-.142-.83-.01-.502.132-.89.667-.384.545-.262 1.01zM41.292-15.725q1.505-.543 2.916.246 1.424.794 2.02 2.45l.953 2.644q.125.348.158.527.046.186.017.43-.071.483-1.03.828-1.073.387-1.433-.11-.186-.22-.369-.729l-.956-2.653q-.223-.62-.703-.83-.473-.223-1.066-.01-.602.217-.84.707-.235.499-.025 1.082l.96 2.663q.125.348.167.524.036.189-.012.44-.042.472-1.011.821-.95.343-1.303.013-.185-.189-.274-.348-.083-.172-.205-.51l-1.922-5.335q-.119-.33-.16-.506-.037-.188.01-.44.072-.45 1.022-.793.913-.329 1.255-.058.242.2.37.557.02-.124.165-.4.136-.272.293-.456.382-.53 1.003-.754zM59.858-15.449l-.22-.427q-.167.986-1.35 1.595-1.182.608-2.772.054-1.59-.554-2.34-2.012-.745-1.45-.268-3.079.478-1.629 1.714-2.265.48-.247.972-.275.491-.028.72.046.216.069.373.156-.161-.423-.017-.755.143-.333.695-.617.56-.288.85-.336.304-.044.516.106.211.15.32.296.096.142.265.47l3.034 5.896q.841 1.636.216 3.218-.622 1.59-2.044 2.322-1.085.559-2.333.537-1.248-.021-1.468-.448-.288-.56-.08-1.207.115-.43.207-.624.091-.193.287-.294.196-.1.496-.041.96.181 1.76-.23.542-.28.66-.88.118-.601-.193-1.206zm-4.24-2.035q.237.462.785.653.552.177 1.077-.093.516-.265.661-.813.155-.552-.078-1.005-.23-.445-.76-.667-.53-.222-1.081.062-.56.288-.701.844-.142.557.096 1.019zM63.113-21.27q-1.029-1.62-.567-3.394.475-1.77 1.936-2.698 1.452-.921 3.24-.587 1.787.334 2.816 1.955.707 1.115.682 2.362-.03 1.24-.596 2.179-.57.93-1.465 1.498-.895.568-2.01.66-1.114.091-2.23-.397-1.12-.497-1.806-1.578zm3.436-.819q.649.051 1.088-.228.447-.284.68-.905.233-.622-.19-1.29-.418-.658-1.044-.71-.623-.067-1.112.244-.49.31-.69.91-.207.606.21 1.265.414.65 1.058.714zM72.685-27.487q-1.172-1.52-.875-3.328.312-1.807 1.682-2.863 1.361-1.05 3.172-.881 1.81.169 2.983 1.69.806 1.044.895 2.29.083 1.236-.394 2.223-.483.979-1.322 1.626-.84.647-1.94.84-1.102.193-2.257-.191-1.162-.392-1.944-1.406zm3.347-1.13q.65-.008 1.062-.326.42-.323.595-.964.175-.64-.307-1.266-.477-.617-1.105-.613-.626-.01-1.085.345-.46.354-.603.97-.151.622.325 1.24.47.61 1.118.615zM80.689-44.285q-.076-.257.083-.527.152-.278.525-.625.367-.34.662-.478.281-.138.532-.044.252.095.395.22.145.112.397.383l6.498 6.998q.252.271.352.423.115.153.17.403.116.478-.697 1.234-.814.755-1.44.272.033 1.02-.846 1.836-1.055.98-2.784.867-1.716-.113-2.859-1.344-1.136-1.224-1.122-2.957.008-1.74 1.056-2.714.865-.803 1.893-.665l-2.287-2.463q-.245-.263-.36-.416-.1-.152-.168-.403zm4.008 8.137q.593.036 1.025-.365.44-.408.433-.989-.007-.58-.36-.961-.355-.381-.94-.452-.577-.078-1.046.357-.469.436-.455 1.023.021.581.382.97.36.388.96.417zM91.692-40.302l-4.076-3.854q-.27-.254-.394-.4-.11-.145-.209-.39-.154-.448.554-1.197.529-.559.952-.6.346-.044.687.264.13.096.355.309l4.07 3.847q.268.254.385.392.11.146.195.405.168.434-.54 1.183-.693.734-1.157.598-.25-.085-.401-.187-.138-.102-.42-.37zm-4.428-7.806q.085.246-.049.532-.147.287-.49.65-.344.364-.623.527-.278.15-.535.072t-.408-.18q-.152-.115-.421-.37-.262-.247-.386-.392-.11-.146-.202-.383-.161-.456.547-1.204.693-.734 1.143-.584.264.07.423.18.144.108.413.362.269.255.386.393.117.152.202.397zM97.746-52.994q.753.627.801 1.304.048.677-.33 1.13l-2.425 2.913q.346.288.924.08.563-.208.902-.616.595-.715.788-1.243l.055-.176q.119-.408.279-.6.333-.4 1.116-.216.465.114.696.305 1.099.915-1.083 3.536-.755.907-1.659 1.352-.903.445-1.745.408-1.645-.056-2.875-1.08-1.544-1.285-1.643-3.059-.091-1.78 1.156-3.28 1.42-1.705 3.292-1.5.99.108 1.751.742zm-3.087 4.443l1.286-1.545q.39-.469-.002-.795-.284-.237-.64-.169-.348.075-.681.474-.333.4-.336 1.06.004.668.373.975zM102.965-52.527q-.328.136-.672-.106-.343-.242-.679-1.224-.131-.3.1-.627.224-.32.936-.637.705-.323 1.021-.773.559-.793.24-1.018-.246-.173-.976.622-.704.74-1.772 1.198-.494.215-1.18.112-.68-.112-1.366-.595-2.07-1.456-.072-4.294.656-.932 1.788-1.603.535-.308.846-.09.319.225.57.842.256.608.043.91-.11.156-.605.443-.495.287-.846.786-.541.769-.255.97.392.277 1.134-.534.694-.795 1.679-1.326.445-.25 1.08-.18.63.063 1.308.54.679.478.983 1.071.296.587.21 1.212-.186 1.117-1.078 2.384-.886 1.26-2.437 1.917z"/></g></svg><svg data-layer-type="text" y="155" viewBox="2.65 11.76 158.502 39.48" x="208.249" height="39.48" width="158.502" style="position:absolute"><path d="M10.54 43.76q-.8 0-1.49-.29t-.9-.8q.5-.33.88-.84.38-.5.65-1.28t.48-1.91l3.28-17.47q.38-1.98 1.13-3.28.76-1.3 2-1.99 1.24-.7 3.04-.78l-4.78 24.44q-.3 1.47-.82 2.42-.53.94-1.37 1.36-.84.42-2.1.42zm-3.82-17.3q-1.26 0-2.16-.61-.91-.61-1.41-1.7-.5-1.09-.5-2.56 0-2.02.98-3.93.99-1.91 3.01-3.13 2.01-1.22 5.12-1.22 1.3 0 2.37.24 1.07.23 2.02.58.94.36 1.78.63.84.28 1.64.36l-3.74 1.3-.08-.12q-.25-.17-.88-.47-.63-.29-2.1-.29-2.52 0-3.93 1.55-1.41 1.56-1.41 4.33 0 1.18.3 2.31.29 1.13.88 2.23-.42.25-.9.37-.49.13-.99.13zm17.3 16.84q-.37 0-.75-.06t-.63-.15q.25-3.02.4-5.39.14-2.38.19-4.52.12-4.7-.13-7.75-.25-3.04-.8-4.89-.54-1.85-1.19-2.88-.66-1.03-1.33-1.62.63-.75 1.58-1.26.94-.5 1.91-.5 1.72 0 2.75 1.76 1.03 1.77 1.47 5.15.44 3.38.31 8.21-.04 2.39-.27 4.87t-.48 4.83h.17q1.68-.71 3.25-2.33 1.58-1.62 2.92-3.78 1.34-2.16 2.35-4.53 1.01-2.38 1.6-4.71.59-2.33.67-4.18.08-2.43-.27-3.71-.36-1.29-.95-2.17.38-.84 1.2-1.38.82-.55 1.62-.55 1.59 0 2.29 1.18.69 1.17.65 3.57-.09 2.52-.84 5.46-.76 2.94-2.1 5.94-1.35 3-3.11 5.75-1.77 2.75-3.84 4.92-2.08 2.16-4.27 3.44-2.18 1.28-4.37 1.28zm26.63.38q-2.56 0-4.26-1.22-1.7-1.22-2.58-3.5-.89-2.29-.89-5.4 0-2.69.59-5.42t1.75-5.21q1.15-2.48 2.87-4.43 1.72-1.95 4.01-3.09 2.29-1.13 5.15-1.13 1.51 0 2.81.38t2.27 1.11q.97.74 1.51 1.77.55 1.02.55 2.28 0 1.31-.48 2.25-.49.95-1.29 1.45-.79.5-1.76.5-.42 0-1.01-.16-.59-.17-.88-.55.34-.5.57-1.22.23-.71.23-1.59 0-1.05-.44-1.79-.44-.73-1.22-1.15-.78-.42-1.87-.42-1.68 0-3.02 1.11-1.35 1.11-2.33 2.9-.99 1.78-1.62 3.95-.63 2.16-.95 4.28-.31 2.12-.31 3.8 0 1.6.21 2.88.21 1.28.71 2.18.51.9 1.39 1.39.88.48 2.22.48.89 0 1.73-.23t1.57-.63q.74-.4 1.11-.86v2.69q-.58.5-1.57 1.11-.99.61-2.18 1.05-1.2.44-2.59.44zm3.53 7.56q-1.3 0-2.39-.73-1.1-.74-1.18-2.21H51.07q1.68 0 2.71-.88t1.6-2.29q.56-1.41.82-3.05.25-1.63.42-3.23l1.34-8.95 5.33-.75q-.63 1.38-1.09 3.13-.46 1.74-.88 4.09-.42 2.35-1.05 5.67-.42 2.44-.92 4.18-.51 1.74-1.2 2.86-.69 1.11-1.66 1.64-.97.52-2.31.52zm16.17-8.4l-4.91.5 4.2-21.92 3.99-.5-.51 3.78q.8-1.81 2.4-2.96 1.59-1.16 3.57-1.16 2.05 0 3 1.22.94 1.22.94 2.98 0 2.1-1.13 3.61-1.13 1.51-2.98 1.51-.51 0-1.03-.16-.53-.17-.82-.59.55-.72.88-1.74.34-1.03.34-1.87 0-.8-.36-1.26-.36-.47-1.15-.47-1.01 0-1.77.74-.75.73-1.26 1.87-.5 1.13-.82 2.41-.31 1.28-.52 2.33l-2.06 11.68zm20.37.84q-2.39 0-4.14-.9-1.74-.91-2.66-2.75-.93-1.85-.93-4.67 0-2.64.74-5.27.73-2.62 2.2-4.76 1.47-2.15 3.76-3.45 2.29-1.3 5.4-1.3 1.64 0 2.94.46t2.06 1.51q.75 1.05.75 2.86 0 2.44-1.45 4.1-1.45 1.65-3.84 2.52-2.39.86-5.29.86-.55 0-1.2-.02-.65-.03-1.07-.07l-.08 1.33q-.05.65-.05 1.19 0 2.27.84 3.55.84 1.28 3.07 1.28 1.81 0 3.23-.86 1.43-.86 2.23-2.46.59.17.8.68.21.5.21 1.05 0 1.26-.88 2.43-.89 1.18-2.57 1.93-1.68.76-4.07.76zm-2.44-12.94q1.43 0 2.84-.29t2.58-.94q1.18-.66 1.87-1.68.69-1.03.69-2.42 0-1.22-.56-1.83-.57-.61-1.62-.61-1.18 0-2.16.74-.99.73-1.7 1.91-.72 1.18-1.2 2.52t-.74 2.6zm21.63 12.94q-2.39 0-4.13-.9-1.75-.91-2.67-2.75-.92-1.85-.92-4.67 0-2.64.73-5.27.74-2.62 2.21-4.76 1.47-2.15 3.76-3.45 2.28-1.3 5.39-1.3 1.64 0 2.94.46t2.06 1.51q.76 1.05.76 2.86 0 2.44-1.45 4.1-1.45 1.65-3.85 2.52-2.39.86-5.29.86-.54 0-1.2-.02-.65-.03-1.07-.07l-.08 1.33q-.04.65-.04 1.19 0 2.27.84 3.55.84 1.28 3.06 1.28 1.81 0 3.24-.86 1.43-.86 2.22-2.46.59.17.8.68.21.5.21 1.05 0 1.26-.88 2.43-.88 1.18-2.56 1.93-1.68.76-4.08.76zm-2.43-12.94q1.43 0 2.83-.29 1.41-.29 2.59-.94 1.17-.66 1.87-1.68.69-1.03.69-2.42 0-1.22-.57-1.83-.57-.61-1.62-.61-1.17 0-2.16.74-.99.73-1.7 1.91t-1.2 2.52q-.48 1.34-.73 2.6zm29.4 12.94q-1.3 0-2.08-.73-.78-.74-.78-2.42 0-.92.28-2.39.27-1.47.65-3.13.37-1.66.75-3.3t.65-2.96q.28-1.32.28-2.08 0-1.39-.72-2.12-.71-.74-1.89-.74-1.64 0-2.77 1.14-1.13 1.13-1.85 2.83-.71 1.7-1.05 3.38l-2.27 11.68-4.78.5 4.28-21.92 3.99-.5-.5 3.78q1.13-2.02 3.02-3.07 1.89-1.05 3.99-1.05 2.56 0 3.91 1.32 1.34 1.33 1.34 3.72 0 1.18-.25 2.73t-.65 3.3q-.4 1.74-.78 3.38t-.65 2.98q-.27 1.34-.27 2.1 0 .63.25 1.05.25.42 1.01.5-.26 1.05-1.14 1.54-.88.48-1.97.48zm13.48.08q-1.34 0-2.63-.27-1.28-.27-2.33-.82-1.05-.54-1.65-1.38-.61-.84-.61-1.94 0-1.21.63-1.89.63-.67 1.49-.98.86-.32 1.66-.32.46 0 .92.11.46.1.76.44-.21.59-.38 1.11-.17.53-.17 1.2.04 1.05.84 1.7.8.65 2.18.65 1.52 0 2.55-.82 1.02-.82 1.02-2.12 0-1.09-.58-1.95-.59-.86-1.54-1.6-.94-.73-1.95-1.45-1.13-.8-2.23-1.7-1.09-.9-1.78-2.06-.69-1.15-.69-2.75 0-1.55.79-2.75.8-1.2 2.1-1.99 1.31-.8 2.92-1.2 1.62-.4 3.22-.4 1.47 0 2.91.38 1.45.38 2.42 1.28t.92 2.46q0 1.63-1.02 2.52-1.03.88-2.25.88-.46 0-1.01-.11-.55-.1-.97-.44.3-.54.44-1.13.15-.59.15-1.18 0-1.09-.73-1.7-.74-.61-2.08-.61-1.35 0-2.29.74-.95.73-.95 2.03 0 .93.47 1.68.46.76 1.21 1.43.76.67 1.64 1.3 1.3.89 2.58 1.83 1.29.95 2.15 2.16.86 1.22.82 2.99 0 2.05-1.28 3.55-1.29 1.49-3.34 2.31-2.06.81-4.33.81z" data-horizontal-grow="center" font-size="42" font-weight="400" font-family="Sansita Swashed" dominant-baseline="hanging"/></svg></svg>