<svg class="prefix__prefix__variation-svg prefix__prefix__fade-enter-done" viewBox="44.78 77.68 485.44 419.9"
    xmlns="http://www.w3.org/2000/svg" xmlns:xlink="http://www.w3.org/1999/xlink">
    <svg data-layer-type="text" y="411.16" viewBox=".83 4.63 309.77 16.42" x="132.615"
        height="16.42" width="309.77" style="position:absolute">
        <path
            d="M13.55 11.32q0 1.45-.46 2.66-.46 1.21-1.3 2.09-.84.87-2.01 1.35-1.18.48-2.6.48-1.42 0-2.59-.48t-2.01-1.35q-.83-.88-1.29-2.09-.46-1.21-.46-2.66 0-1.45.46-2.66.46-1.21 1.29-2.09.84-.87 2.01-1.36 1.17-.49 2.59-.49t2.6.49q1.17.49 2.01 1.36.84.88 1.3 2.09.46 1.21.46 2.66zm-1.8 0q0-1.19-.32-2.13-.32-.95-.92-1.6-.59-.65-1.44-1-.84-.35-1.89-.35-1.03 0-1.88.35-.84.35-1.44 1t-.93 1.6q-.32.94-.32 2.13t.32 2.13q.33.94.93 1.59.6.66 1.44 1 .85.35 1.88.35 1.05 0 1.89-.35.85-.34 1.44-1 .6-.65.92-1.59.32-.94.32-2.13zm10.93 6.45h-1.6V8.65H22q.26 0 .36.1.1.1.13.34l.11 1.42q.47-.95 1.16-1.49.68-.53 1.61-.53.38 0 .69.08.3.09.56.24l-.2 1.2q-.07.22-.28.22-.13 0-.39-.08-.26-.09-.73-.09-.84 0-1.4.49-.56.48-.94 1.41v5.81zM36.8 8.5q.6 0 1.11.13.52.13.94.38h2.48v.59q0 .3-.38.38l-1.03.15q.3.58.3 1.3 0 .67-.26 1.21-.25.55-.71.93-.45.39-1.08.6-.62.2-1.37.2-.64 0-1.2-.15-.29.18-.44.39-.15.2-.15.4 0 .33.26.49.26.17.69.24.44.07.99.09.54.02 1.12.06.57.04 1.12.14.55.1.98.32.43.23.69.62.26.4.26 1.03 0 .59-.29 1.13-.29.55-.84.98-.55.43-1.34.68-.8.26-1.79.26-1 0-1.76-.2-.75-.19-1.24-.53-.5-.33-.74-.77-.25-.43-.25-.91 0-.68.43-1.15.42-.47 1.17-.75-.39-.18-.62-.48-.23-.3-.23-.81 0-.19.08-.41.07-.21.22-.41.15-.21.36-.4.22-.19.51-.33-.68-.38-1.06-1.01-.38-.62-.38-1.46 0-.67.25-1.21.26-.54.72-.93.46-.38 1.09-.59.64-.2 1.39-.2zm2.85 9.76q0-.34-.19-.55-.19-.2-.52-.32-.32-.11-.74-.16-.43-.06-.89-.08-.47-.02-.96-.05-.48-.03-.93-.1-.51.24-.83.6-.32.35-.32.83 0 .31.16.57.16.27.48.46.33.2.82.31.49.11 1.15.11.65 0 1.16-.12.52-.11.87-.33.36-.21.55-.51.19-.3.19-.66zm-2.85-4.95q.49 0 .86-.13.37-.14.63-.38.25-.24.37-.58.13-.34.13-.74 0-.84-.51-1.34-.51-.49-1.48-.49-.96 0-1.47.49-.51.5-.51 1.34 0 .4.13.74.13.34.38.58.26.24.63.38.36.13.84.13zm18.23-1.38v5.84h-.71q-.24 0-.38-.08-.15-.07-.19-.3l-.18-.85q-.36.33-.7.58-.35.26-.72.43-.38.18-.81.27-.43.09-.95.09-.53 0-.99-.15-.47-.15-.81-.44-.34-.3-.54-.76-.21-.45-.21-1.07 0-.54.3-1.04t.96-.89q.66-.38 1.73-.63 1.07-.25 2.62-.28v-.72q0-1.06-.45-1.6-.46-.55-1.35-.55-.58 0-.98.15t-.7.33q-.29.19-.5.34-.21.15-.42.15-.16 0-.28-.09-.12-.08-.2-.21l-.28-.51q.75-.73 1.62-1.09.88-.36 1.94-.36.76 0 1.36.25.59.25 1 .7.4.45.61 1.09.21.64.21 1.4zm-4.16 4.86q.42 0 .77-.09.35-.09.66-.24.31-.16.6-.39.28-.22.55-.51v-1.9q-1.11.04-1.88.18-.77.14-1.26.36-.49.23-.71.53-.22.31-.22.69 0 .36.12.62t.32.43q.19.16.46.24.27.08.59.08zm13.59.98h-1.6V8.65h.95q.34 0 .43.33l.13.99q.59-.65 1.33-1.06.73-.4 1.69-.4.75 0 1.32.24.57.25.95.7.39.46.59 1.1.19.64.19 1.41v5.81h-1.6v-5.81q0-1.03-.47-1.61-.47-.57-1.45-.57-.71 0-1.32.35-.62.34-1.14.92v6.72zm13.98-9.12h1.61v9.12h-1.61V8.65zm1.97-2.86q0 .23-.1.43-.09.21-.25.36-.16.16-.36.25-.21.09-.45.09-.23 0-.43-.09-.2-.09-.36-.25-.16-.15-.25-.36-.09-.2-.09-.43 0-.24.09-.45.09-.21.25-.37t.36-.25q.2-.09.43-.09.24 0 .45.09.2.09.36.25.16.16.25.37.1.21.1.45zm14.5 3.9l-.42.58q-.07.1-.14.15-.07.06-.21.06-.13 0-.29-.12-.16-.11-.4-.24-.25-.14-.59-.25-.35-.11-.85-.11-.67 0-1.18.23-.51.24-.86.69-.35.45-.52 1.09-.18.64-.18 1.43 0 .83.19 1.47.19.65.53 1.08.34.44.83.67.49.23 1.11.23.58 0 .96-.14t.63-.31q.25-.17.41-.31.17-.14.33-.14.2 0 .3.15l.45.59q-.59.73-1.48 1.06-.89.34-1.88.34-.86 0-1.59-.31-.73-.32-1.27-.92-.54-.59-.86-1.47-.31-.87-.31-1.99 0-1.01.29-1.88.28-.86.83-1.49.54-.62 1.34-.97t1.84-.35q.95 0 1.69.31t1.3.87zm18.01 8.08h-1.61v-7.75l-1.01-.12q-.18-.04-.31-.14-.12-.09-.12-.27v-.66h1.44v-.88q0-.79.22-1.39.22-.61.63-1.03.41-.42.99-.63.57-.22 1.29-.22.62 0 1.14.18l-.04.8q-.01.18-.15.22-.14.03-.41.03h-.27q-.42 0-.76.11-.33.11-.58.35-.24.25-.37.64-.13.4-.13.98v.84h2.64v1.16h-2.59v7.78zm11.1 0h-1.6V8.65h.92q.26 0 .36.1.1.1.13.34l.11 1.42q.47-.95 1.16-1.49.68-.53 1.61-.53.38 0 .69.08.3.09.56.24l-.2 1.2q-.07.22-.28.22-.13 0-.39-.08-.26-.09-.73-.09-.84 0-1.4.49-.56.48-.94 1.41v5.81zm10.84-9.12h1.6v5.81q0 1.04.48 1.61.47.56 1.44.56.7 0 1.32-.33.62-.33 1.14-.93V8.65h1.6v9.12h-.95q-.34 0-.43-.34l-.13-.98q-.59.66-1.33 1.06-.74.4-1.69.4-.75 0-1.32-.25-.57-.24-.96-.69-.39-.45-.58-1.09-.19-.64-.19-1.42V8.65zm15.8 0h1.6v9.12h-1.6V8.65zm1.96-2.86q0 .23-.09.43-.1.21-.25.36-.16.16-.37.25t-.44.09q-.23 0-.44-.09-.2-.09-.36-.25-.15-.15-.24-.36-.09-.2-.09-.43 0-.24.09-.45.09-.21.24-.37.16-.16.36-.25.21-.09.44-.09t.44.09q.21.09.37.25.15.16.25.37.09.21.09.45zm10.63 12.12q-1.08 0-1.66-.6-.58-.61-.58-1.74V9.99h-1.1q-.14 0-.24-.09-.1-.08-.1-.26V9l1.49-.19.37-2.82q.02-.13.12-.22.1-.08.25-.08h.81v3.14h2.61v1.16h-2.61v5.47q0 .58.28.86t.72.28q.25 0 .44-.07.18-.07.32-.15.13-.08.23-.15.09-.07.16-.07.13 0 .23.16l.47.76q-.42.39-1 .61-.59.22-1.21.22zm14.93-8.34l-.36.58q-.11.2-.33.2-.14 0-.31-.1-.17-.1-.42-.22-.24-.12-.58-.22-.35-.11-.81-.11-.41 0-.73.11-.33.1-.56.28-.23.18-.35.42-.12.24-.12.52 0 .35.2.58.21.23.54.41.33.17.75.3.43.13.87.28.45.14.87.32t.76.45q.33.27.53.67.21.39.21.94 0 .63-.23 1.16-.22.54-.67.93-.44.39-1.08.62-.63.22-1.47.22-.96 0-1.73-.31t-1.31-.8l.37-.61q.08-.12.18-.18.09-.06.26-.06.16 0 .34.12.18.13.43.28.26.16.63.28.36.13.91.13.47 0 .82-.12t.58-.33q.24-.21.35-.48.11-.27.11-.57 0-.38-.2-.63t-.54-.42q-.33-.18-.76-.31l-.87-.27q-.44-.15-.87-.33-.43-.19-.76-.47-.34-.27-.54-.68-.2-.41-.2-1 0-.52.22-1 .21-.48.63-.85.41-.36 1.01-.58.61-.21 1.38-.21.9 0 1.61.28.72.28 1.24.78zm21.13-4.85q.72 0 1.3.23.59.23 1.01.61.43.38.68.88.25.5.28 1.04l-1 .2q-.04.01-.08.01-.12 0-.22-.07-.1-.06-.15-.22-.06-.24-.2-.49t-.36-.46q-.22-.2-.53-.34-.31-.13-.73-.13-.45 0-.81.14-.36.14-.61.4-.26.26-.4.6-.14.35-.14.76 0 .31.08.6t.23.58q.15.29.39.6.25.31.59.65l3.71 3.78q.34-.61.54-1.27t.28-1.33q.01-.17.1-.27.09-.1.26-.1h.99q-.02 1.04-.34 2.04-.31 1-.91 1.87l2.7 2.74h-1.54q-.26 0-.43-.07-.16-.06-.36-.26l-1.29-1.3q-.85.82-1.95 1.29-1.1.48-2.43.48-.72 0-1.41-.24-.69-.25-1.24-.71-.54-.46-.87-1.13-.34-.66-.34-1.5 0-.63.21-1.19.22-.57.59-1.04.37-.48.89-.86.51-.38 1.12-.65-.55-.69-.81-1.35-.26-.65-.26-1.36 0-.65.24-1.23.24-.57.69-1 .45-.43 1.09-.68.64-.25 1.44-.25zm-3.57 9.48q0 .59.22 1.03.21.45.56.75.36.31.81.47.45.16.91.16 1.01 0 1.81-.37t1.42-.98l-3.81-3.85q-.96.52-1.44 1.23-.48.72-.48 1.56zm28.44 3.57l-3.72-9.12h1.32q.19 0 .31.1.13.1.18.23l2.32 5.87q.12.32.19.65.08.32.14.64.07-.32.15-.64.08-.33.21-.65l2.34-5.87q.05-.14.17-.24.13-.09.31-.09h1.25l-3.72 9.12h-1.45zm15.43-9.26q.82 0 1.51.27.69.27 1.2.79.5.52.78 1.28.29.76.29 1.73 0 .38-.08.51-.08.12-.31.12h-6.07q.02.87.24 1.51.21.63.59 1.06.38.43.9.64.52.21 1.17.21.61 0 1.04-.14.44-.14.75-.3.32-.16.53-.3.21-.14.36-.14.2 0 .31.15l.45.59q-.3.36-.71.62-.41.27-.89.44-.47.17-.97.26-.51.08-1 .08-.95 0-1.74-.32-.8-.32-1.38-.93-.58-.62-.91-1.53-.32-.91-.32-2.09 0-.95.29-1.78.3-.83.84-1.43.55-.61 1.35-.96.79-.34 1.78-.34zm.03 1.17q-1.16 0-1.82.67-.67.68-.83 1.86h4.96q0-.55-.16-1.02-.15-.46-.45-.8-.29-.34-.72-.52-.43-.19-.98-.19zM253.9 8.5q.59 0 1.11.13.52.13.94.38h2.48v.59q0 .3-.38.38l-1.04.15q.31.58.31 1.3 0 .67-.26 1.21-.25.55-.71.93-.45.39-1.08.6-.62.2-1.37.2-.64 0-1.21-.15-.28.18-.43.39-.15.2-.15.4 0 .33.26.49.26.17.69.24.43.07.98.09.55.02 1.12.06.58.04 1.12.14.55.1.99.32.43.23.69.62.26.4.26 1.03 0 .59-.29 1.13-.3.55-.84.98-.55.43-1.35.68-.79.26-1.79.26t-1.75-.2q-.75-.19-1.24-.53-.5-.33-.75-.77-.24-.43-.24-.91 0-.68.42-1.15.43-.47 1.18-.75-.39-.18-.62-.48-.23-.3-.23-.81 0-.19.07-.41.08-.21.22-.41.15-.21.37-.4.22-.19.5-.33-.67-.38-1.05-1.01-.39-.62-.39-1.46 0-.67.26-1.21.26-.54.72-.93.45-.38 1.09-.59.63-.2 1.39-.2zm2.84 9.76q0-.34-.19-.55-.18-.2-.51-.32-.32-.11-.75-.16-.42-.06-.89-.08-.46-.02-.95-.05-.49-.03-.93-.1-.51.24-.83.6-.32.35-.32.83 0 .31.16.57.16.27.48.46.32.2.81.31.49.11 1.16.11.65 0 1.16-.12.51-.11.87-.33.36-.21.54-.51.19-.3.19-.66zm-2.84-4.95q.49 0 .86-.13.37-.14.62-.38.26-.24.38-.58.13-.34.13-.74 0-.84-.51-1.34-.51-.49-1.48-.49-.96 0-1.47.49-.51.5-.51 1.34 0 .4.13.74.13.34.38.58.25.24.62.38.37.13.85.13zm14.6-4.81q.59 0 1.11.13.52.13.94.38h2.47v.59q0 .3-.37.38l-1.04.15q.31.58.31 1.3 0 .67-.26 1.21-.26.55-.71.93-.45.39-1.08.6-.63.2-1.37.2-.64 0-1.21-.15-.29.18-.44.39-.14.2-.14.4 0 .33.26.49.26.17.69.24.43.07.98.09.55.02 1.12.06.57.04 1.12.14.55.1.98.32.44.23.7.62.26.4.26 1.03 0 .59-.3 1.13-.29.55-.84.98-.55.43-1.34.68-.79.26-1.79.26t-1.75-.2q-.75-.19-1.25-.53-.49-.33-.74-.77-.25-.43-.25-.91 0-.68.43-1.15.43-.47 1.18-.75-.39-.18-.62-.48-.23-.3-.23-.81 0-.19.07-.41.07-.21.22-.41.15-.21.37-.4.21-.19.5-.33-.67-.38-1.06-1.01-.38-.62-.38-1.46 0-.67.26-1.21.25-.54.71-.93.46-.38 1.1-.59.63-.2 1.39-.2zm2.84 9.76q0-.34-.19-.55-.19-.2-.51-.32-.32-.11-.75-.16-.42-.06-.89-.08-.47-.02-.95-.05-.49-.03-.93-.1-.51.24-.83.6-.32.35-.32.83 0 .31.16.57.15.27.48.46.32.2.81.31.49.11 1.16.11.65 0 1.16-.12.51-.11.87-.33.35-.21.54-.51.19-.3.19-.66zm-2.84-4.95q.48 0 .86-.13.37-.14.62-.38t.38-.58q.13-.34.13-.74 0-.84-.51-1.34-.51-.49-1.48-.49t-1.47.49q-.51.5-.51 1.34 0 .4.13.74.13.34.38.58.25.24.62.38.37.13.85.13zm11.71-4.66h1.6v9.12h-1.6V8.65zm1.96-2.86q0 .23-.1.43-.09.21-.25.36-.16.16-.36.25-.21.09-.44.09-.24 0-.44-.09t-.36-.25q-.16-.15-.25-.36-.09-.2-.09-.43 0-.24.09-.45.09-.21.25-.37t.36-.25q.2-.09.44-.09.23 0 .44.09.2.09.36.25.16.16.25.37.1.21.1.45zm11.47 2.72q.82 0 1.52.27.69.27 1.19.79.51.52.79 1.28t.28 1.73q0 .38-.08.51-.08.12-.3.12h-6.07q.02.87.23 1.51.22.63.6 1.06.38.43.9.64.52.21 1.17.21.6 0 1.04-.14.43-.14.75-.3.31-.16.53-.3.21-.14.36-.14.2 0 .31.15l.45.59q-.3.36-.71.62-.42.27-.89.44-.47.17-.98.26-.5.08-1 .08-.94 0-1.74-.32-.79-.32-1.38-.93-.58-.62-.9-1.53-.32-.91-.32-2.09 0-.95.29-1.78.29-.83.84-1.43.55-.61 1.34-.96.79-.34 1.78-.34zm.04 1.17q-1.16 0-1.83.67-.66.68-.83 1.86h4.96q0-.55-.15-1.02-.15-.46-.45-.8-.3-.34-.72-.52-.43-.19-.98-.19zm16.77-.11l-.36.58q-.11.2-.34.2-.13 0-.3-.1-.17-.1-.42-.22-.25-.12-.59-.22-.34-.11-.81-.11-.41 0-.73.11-.32.1-.55.28-.23.18-.35.42-.13.24-.13.52 0 .35.21.58.2.23.53.41.33.17.76.3.42.13.87.28.44.14.87.32.42.18.75.45t.54.67q.2.39.2.94 0 .63-.23 1.16-.22.54-.66.93-.44.39-1.08.62-.64.22-1.48.22-.95 0-1.73-.31-.77-.31-1.31-.8l.38-.61q.07-.12.17-.18t.26-.06q.16 0 .34.12.18.13.44.28.26.16.62.28.36.13.91.13.47 0 .82-.12t.59-.33q.23-.21.34-.48.12-.27.12-.57 0-.38-.21-.63-.2-.25-.53-.42-.33-.18-.76-.31t-.88-.27q-.44-.15-.87-.33-.43-.19-.76-.47-.33-.27-.53-.68-.21-.41-.21-1 0-.52.22-1t.63-.85q.41-.36 1.02-.58.6-.21 1.37-.21.9 0 1.62.28.71.28 1.24.78z"
            data-horizontal-grow="center" font-size="18" font-weight="400" font-family="Lato"
            dominant-baseline="hanging" letter-spacing=".3em" />
    </svg><svg data-layer-type="text" y="322.84" viewBox="0 12.12 345.44 72.78" x="114.78" height="72.78" width="345.44"
        style="position:absolute">
        <path
            d="M48.21 14.41q0 1.11-.6 2.19-.61 1.08-1.56 2-.95.92-2.14 1.66-1.19.75-2.36 1.23-.32 1.33-.51 2.96-.19 1.64-.26 3.64-.06 2.47-.19 4.92-.12 2.44-.38 4.85 2.57-.09 5.62-.2 3.05-.11 6.38-.21 3.33-.09 6.84-.16 3.51-.06 7-.06.25-5.08 1.11-9.01.86-3.94 2.24-6.64 1.38-2.7 3.25-4.09 1.87-1.4 4.16-1.4.38 0 .93.06.56.07 1.1.24.54.18.92.51t.38.91q0 .15-.03.3-.03.14-.13.3-.35.57-.95.57-.26 0-.4-.08t-.35-.16q-.2-.08-.52-.16t-.89-.08q-.48 0-1.22.18-.75.17-1.6.81-.86.63-1.77 1.85-.9 1.23-1.68 3.3-.78 2.08-1.36 5.16-.59 3.08-.78 7.43l4.13.06q2.03.03 3.99.1.54 0 .85.36.3.37.3.88 0 .5-.35.82-.35.32-.83.32-.63 0-1.31-.02-.69-.01-1.62-.05-.94-.03-2.21-.06t-3.01-.03q-.04.51-.04 1.02v1.04q0 3.49.27 6.25.27 2.77.67 4.89.4 2.13.87 3.64.48 1.5.89 2.47.41.97.68 1.43l.27.46q.23.32.23.7 0 .47-.35.84-.35.36-.86.36-.6 0-.95-.5-.07-.1-.72-1.24-.65-1.14-1.41-3.6-.76-2.46-1.38-6.32-.62-3.86-.62-9.38v-2.06q-3.52 0-7.08.06-3.55.07-6.9.16-3.35.1-6.41.21-3.06.11-5.63.2-.61 4.42-1.86 8.32-1.25 3.9-3.59 6.84-2.33 2.93-5.95 4.63-3.62 1.7-8.92 1.7-2.79 0-5.41-.59-2.62-.58-4.87-1.65-2.25-1.06-4.06-2.55-1.81-1.49-2.95-3.27-.19-.29-.19-.64 0-.47.33-.84.33-.36.87-.36.29 0 .57.14.29.14.45.4.98 1.55 2.55 2.82 1.57 1.27 3.57 2.19 2 .92 4.34 1.43 2.33.51 4.84.51 4.66 0 7.84-1.48 3.17-1.47 5.18-4.04 2.02-2.57 3.11-6.02 1.1-3.44 1.64-7.41-3.05.16-4.82.26-1.78.09-1.85.09-.47 0-.87-.3t-.4-.84q0-.51.31-.86.3-.35.81-.41.06 0 1.96-.1 1.91-.09 5.15-.25.25-2.44.39-4.94.14-2.49.27-5.03.07-1.62.24-3.12.17-1.51.43-2.75-.73.16-1.64.27-.9.11-1.79.11-2.79 0-5.49-.44-2.7-.45-5.41-.97-2.72-.52-5.46-.97-2.75-.44-5.6-.44-2.35 0-4.4.49-2.05.49-3.57 1.51-1.52 1.01-2.4 2.55-.87 1.54-.87 3.64 0 1.33.48 2.34.47 1.02 1.08 1.72.6.7 1.16 1.09.55.4.71.5.57.41.57 1.04 0 .51-.32.84-.31.34-.79.34-.22 0-.43-.08-.2-.08-.36-.18-.73-.44-1.53-1.14-.79-.7-1.46-1.67-.66-.96-1.09-2.17Q0 29.29 0 27.87q0-2.8 1.22-4.81 1.22-2.02 3.19-3.3 1.97-1.29 4.4-1.89 2.43-.6 4.87-.6 2.76 0 5.47.46 2.72.46 5.45 1t5.47 1q2.75.46 5.6.46 1.15 0 2.07-.08.92-.08 1.74-.34.57-2 1.32-3.44.75-1.44 1.59-2.38.84-.94 1.69-1.38.86-.45 1.65-.45 1.05 0 1.77.64.71.63.71 1.65zm-2.63-.03q-.26 0-.69.27-.42.27-.93.82-.51.56-1.02 1.41-.51.86-.89 2.04 1.05-.48 1.84-1.24.8-.76 1.27-1.51.48-.75.61-1.27.12-.52-.19-.52zm57.13 37.23q-.13.25-.53 1.06t-1.01 1.86q-.62 1.04-1.45 2.19-.82 1.14-1.84 2.09-1.01.95-2.19 1.57-1.17.62-2.47.62-1.85 0-3.1-1.17-1.25-1.18-1.82-2.95-1.08 1.8-2.57 2.87-1.5 1.06-2.99 1.06-1.17 0-2.12-.43-.96-.43-1.62-1.2-.67-.78-1.03-1.83-.37-1.05-.37-2.28 0-2.48.84-4.37.84-1.89 2.14-3.16 1.3-1.27 2.88-1.9 1.57-.64 3.03-.64.98 0 1.81.27.82.27 1.41.59.59.32.9.59.32.27.35.3.35.41.35.86 0 .47-.35.84-.35.36-.82.36-.51 0-.86-.35-.06-.06-.29-.23-.22-.18-.6-.37t-.9-.33q-.53-.14-1.19-.14-.99 0-2.1.44t-2.03 1.38q-.92.94-1.54 2.35-.62 1.41-.62 3.35 0 .6.13 1.22t.44 1.13q.32.5.86.82.54.32 1.33.32.57 0 1.32-.38.75-.38 1.43-1.18.68-.79 1.24-2 .55-1.2.77-2.85.07-.45.42-.75t.82-.3q.45 0 .78.35t.36.79q.04.61.13 1.7.1 1.1.43 2.17.33 1.08 1 1.88.67.79 1.84.79.76 0 1.51-.41.74-.41 1.46-1.1.71-.68 1.36-1.55.65-.87 1.19-1.76.54-.89.96-1.72.41-.82.69-1.43.16-.34.46-.54.31-.19.65-.19.54 0 .88.4.33.4.33.84 0 .22-.09.45zm2.98-16.06q0 1.2-.84 2.04-.84.85-2.05.85t-2.05-.85q-.84-.84-.84-2.04 0-.61.22-1.13.23-.52.62-.92.4-.4.92-.62.53-.22 1.13-.22.6 0 1.13.22.52.22.92.62.39.4.62.92.22.52.22 1.13zm-5.14 18.6q0-4.57.57-9.11.06-.45.39-.78.34-.33.88-.33.47 0 .79.36.32.37.32.84 0 .19-.08 1.14l-.19 2.27q-.11 1.32-.19 2.8-.08 1.47-.08 2.71 0 1.68.33 2.71.34 1.04.86 1.61.52.57 1.11.76.59.19 1.13.19.89 0 1.84-.64.95-.63 1.95-1.77 1-1.15 2.01-2.75 1.02-1.6 2-3.57.16-.32.45-.49.28-.18.63-.18.51 0 .84.39.34.38.34.82 0 .32-.13.54-.38.73-.95 1.78-.57 1.04-1.3 2.16-.73 1.11-1.61 2.2-.87 1.1-1.85 1.97-.99.87-2.07 1.41-1.07.54-2.19.54-1.42 0-2.5-.6-1.08-.61-1.83-1.62-.74-1.02-1.11-2.4-.36-1.38-.36-2.96zm3.36-18.6q0-.45-.33-.78-.34-.33-.78-.33t-.76.33q-.32.33-.32.78 0 .44.32.76t.76.32q.44 0 .78-.32.33-.32.33-.76zm22.57 15.68q1.55 7.33 4.5 7.33 1.15 0 2.19-.84 1.05-.84 1.96-2.07.9-1.22 1.6-2.58.7-1.37 1.14-2.38.32-.77 1.11-.77.51 0 .86.39.35.38.35.82 0 .25-.1.44-.22.54-.65 1.45-.43.9-1.05 1.93-.61 1.04-1.38 2.12-.76 1.07-1.68 1.93-.92.86-1.95 1.41-1.03.56-2.17.56-2.13 0-3.65-1.48-1.53-1.47-2.64-4.87-1.52 3.24-3.08 4.7-1.55 1.46-3.36 1.46-.95 0-1.84-.3-.89-.3-1.56-1-.66-.7-1.08-1.8-.41-1.09-.41-2.68 0-2.19.76-4.03.76-1.84 1.97-3.16 1.21-1.31 2.68-2.04 1.48-.73 2.94-.73.47 0 .82.33t.35.84q0 .45-.28.79-.29.35-.76.42-.96.12-2.04.6-1.07.48-1.98 1.38-.9.91-1.49 2.3-.59 1.4-.59 3.33 0 1.59.65 2.48.65.89 1.89.89.51 0 1.08-.27.57-.27 1.22-1.06.65-.8 1.43-2.26.78-1.46 1.73-3.84-.54-2.79-.98-6.44-.45-3.65-.45-8.16 0-1.97.13-4.11.13-2.14.41-4.19.29-2.04.76-3.89.48-1.84 1.16-3.23.68-1.4 1.6-2.21t2.1-.81q1.05 0 1.78.57t1.19 1.59q.46 1.02.68 2.44.22 1.43.22 3.15 0 3.68-.63 7.36-.64 3.68-1.58 7.05-.93 3.36-1.98 6.22-1.05 2.85-1.9 4.92zm3.71-25.59q0-.79-.05-1.71-.04-.92-.22-1.73-.17-.81-.46-1.35-.29-.54-.76-.54-.79 0-1.48 1.4-.68 1.4-1.19 3.66-.51 2.27-.81 5.15-.3 2.87-.3 5.79 0 2.79.22 5.58.23 2.8.51 4.99.92-2.45 1.75-5.03.82-2.59 1.44-5.29t.99-5.44q.36-2.75.36-5.48zm11.52 31.33q.67.92 1.72 1.48 1.04.55 2.57.55 1.55 0 2.82-.74 1.27-.75 2.32-1.96 1.05-1.2 1.87-2.69.83-1.5 1.49-2.99.16-.35.45-.52.28-.18.63-.18.54 0 .87.39.34.38.34.82 0 .16-.03.27-.04.11-.1.24-2.19 4.82-4.78 7.27-2.58 2.44-5.85 2.5-2.1 0-3.62-.81t-2.51-2.09q-.98-1.29-1.46-2.9-.47-1.62-.47-3.24t.39-2.99q.4-1.36 1.15-2.38.74-1.01 1.77-1.58 1.03-.57 2.27-.57.73 0 1.45.3.71.3 1.28.85.57.56.92 1.35.35.8.35 1.81 0 1.3-.44 2.45-.45 1.14-1.22 2.12-.78.99-1.86 1.81-1.08.83-2.32 1.43zm-.95-2.06q.98-.42 1.79-1.05.81-.63 1.38-1.4.57-.76.89-1.6.32-.84.32-1.7 0-.95-.48-1.44-.47-.49-1.11-.49-.85 0-1.46.47-.6.48-.98 1.24t-.56 1.7q-.17.93-.17 1.86 0 .57.11 1.2.11.64.27 1.21zm17.07-7.49q-.12.85-.31 1.6-.19.75-.37 1.3-.17.56-.3.91-.13.34-.16.38-.32.73-1.11.73-.44 0-.82-.34-.38-.33-.38-.84 0-.19.06-.28.06-.1.19-.38.13-.29.32-.96.19-.66.47-2.06-.54 0-1.11-.03-.57-.03-1.06-.22-.49-.19-.81-.61-.32-.41-.32-1.14 0-.54.3-1.46.3-.92.81-1.81t1.15-1.54q.63-.65 1.26-.65.73 0 1.19.54.46.54.72 1.32.25.78.36 1.63.11.86.11 1.49.54 0 1.07-.01.52-.02 1-.02 1.81 0 2.76.8.95.79.95 2.6 0 .73-.09 1.52-.1.8-.23 1.64-.12.84-.22 1.66-.09.83-.09 1.62 0 1.14.31 1.89.32.75.8 1.19.47.44 1.01.62.54.17.99.17 1.36 0 2.57-.88 1.2-.89 2.22-2.15 1.01-1.25 1.82-2.65.81-1.39 1.35-2.44.16-.29.45-.45.28-.15.6-.15.57 0 .89.36.32.37.32.81 0 .32-.13.57-.73 1.3-1.7 2.94-.97 1.63-2.2 3.06-1.24 1.43-2.78 2.41-1.54.99-3.38.99-1.14 0-2.16-.43-1.02-.43-1.76-1.24-.75-.81-1.19-2-.45-1.19-.45-2.68 0-1.59.32-3.16t.32-3q0-.6-.27-.9-.27-.3-1.19-.3h-.97q-.52 0-1.13.03zm-3.52-2.35h1.4q0-.22-.02-.59-.01-.36-.06-.71-.05-.35-.13-.61-.08-.25-.17-.25-.1 0-.24.24-.14.24-.3.57-.16.33-.29.71-.12.38-.19.64zm88.04-15.11q0 .48-.33.86t-.84.38q-.48 0-.83-.32t-.41-.86q-.03-.12-.14-1.2-.11-1.08-.64-2.65-.52-1.57-1.6-3.37-1.08-1.79-2.97-3.31-1.88-1.53-4.77-2.54-2.89-1.02-7.02-1.02-3.65 0-7.34 1.1-3.7 1.09-7.1 3.08-3.39 1.98-6.35 4.73-2.95 2.74-5.12 6.04-2.18 3.3-3.43 7.05-1.25 3.74-1.25 7.71 0 3.59.98 6.14.98 2.56 2.73 4.17 1.75 1.62 4.11 2.37 2.37.74 5.09.74 4.73 0 8.84-1.63 4.11-1.63 7.62-4.41 3.51-2.78 6.4-6.48 2.88-3.69 5.17-7.79.25-3.87.9-5.92.65-2.04 1.96-2.04.73 0 1.22.6t.49 1.55q0 1.05-.54 2.67-.54 1.62-1.65 3.75-.1 1.49-.1 3.2 0 2.51.21 5.49.21 2.99.65 6.35 1.33-.67 2.08-.97.75-.3 1.1-.41.34-.11.44-.1.09.02.16.02.47 0 .84.33.36.34.36.88 0 .38-.22.68-.22.3-.6.43-.06.03-1.1.42-1.03.4-2.74 1.26.16 1.71.25 3.46.1 1.74.1 3.52 0 4.19-.61 8-.6 3.81-1.98 6.7-1.38 2.88-3.66 4.58-2.29 1.7-5.62 1.7-1.65 0-3.05-.57t-2.41-1.59q-1.02-1.01-1.59-2.43-.57-1.41-.57-3.09 0-2.38.81-4.7.81-2.31 2.16-4.47 1.35-2.16 3.09-4.08 1.75-1.92 3.59-3.54 1.84-1.62 3.63-2.86 1.8-1.23 3.29-2-.41-3.17-.67-6.23-.25-3.07-.32-5.95-2.76 4.41-6.07 7.77-3.32 3.37-6.94 5.65-3.62 2.29-7.44 3.45-3.83 1.15-7.6 1.15-3.43 0-6.22-1.03-2.8-1.03-4.8-3.03-2-2-3.07-4.95-1.08-2.95-1.08-6.79 0-4.06 1.27-8.02 1.27-3.95 3.52-7.52 2.25-3.57 5.35-6.58 3.09-3.02 6.76-5.22 3.66-2.21 7.74-3.46 4.08-1.26 8.33-1.26 4.1 0 7.11.94 3.02.93 5.13 2.38 2.11 1.44 3.43 3.14 1.31 1.7 2.07 3.22.64 1.3 1 2.51.37 1.21.54 2.13.18.92.23 1.49.04.57.04.6zm-8.03 28.25q-1.58.89-3.28 2.11-1.7 1.22-3.3 2.68-1.6 1.46-3.03 3.14-1.43 1.68-2.51 3.49-1.08 1.81-1.7 3.73-.62 1.92-.62 3.86 0 1.21.38 2.17.38.97 1.08 1.65.7.69 1.65 1.07.96.38 2.1.38 4.47 0 6.98-4.75 2.51-4.74 2.51-13.85 0-1.37-.07-2.78-.06-1.41-.19-2.9zm13.84-10.79q-.13.85-.32 1.6-.19.75-.36 1.3-.18.56-.3.91-.13.34-.16.38-.32.73-1.11.73-.45 0-.83-.34-.38-.33-.38-.84 0-.19.07-.28.06-.1.19-.38.12-.29.31-.96.19-.66.48-2.06-.54 0-1.11-.03-.57-.03-1.06-.22-.5-.19-.81-.61-.32-.41-.32-1.14 0-.54.3-1.46.3-.92.81-1.81t1.14-1.54q.64-.65 1.27-.65.73 0 1.19.54.46.54.72 1.32.25.78.36 1.63.11.86.11 1.49.54 0 1.07-.01.52-.02 1-.02 1.8 0 2.76.8.95.79.95 2.6 0 .73-.1 1.52-.09.8-.22 1.64-.13.84-.22 1.66-.1.83-.1 1.62 0 1.14.32 1.89t.79 1.19q.48.44 1.02.62.54.17.98.17 1.37 0 2.57-.88 1.21-.89 2.23-2.15 1.01-1.25 1.82-2.65.81-1.39 1.35-2.44.16-.29.44-.45.29-.15.61-.15.57 0 .89.36.31.37.31.81 0 .32-.12.57-.73 1.3-1.7 2.94-.97 1.63-2.21 3.06-1.23 1.43-2.77 2.41-1.54.99-3.38.99-1.15 0-2.16-.43-1.02-.43-1.76-1.24-.75-.81-1.19-2-.45-1.19-.45-2.68 0-1.59.32-3.16t.32-3q0-.6-.27-.9-.27-.3-1.19-.3h-.97q-.53 0-1.13.03zm-3.52-2.35h1.4q0-.22-.02-.59-.02-.36-.06-.71-.05-.35-.13-.61-.08-.25-.18-.25-.09 0-.23.24-.15.24-.31.57-.15.33-.28.71-.13.38-.19.64zm23.71 11.9q.66.92 1.71 1.48 1.05.55 2.57.55 1.56 0 2.83-.74 1.27-.75 2.31-1.96 1.05-1.2 1.88-2.69.82-1.5 1.49-2.99.16-.35.44-.52.29-.18.64-.18.54 0 .87.39.33.38.33.82 0 .16-.03.27-.03.11-.09.24-2.19 4.82-4.78 7.27-2.59 2.44-5.86 2.5-2.09 0-3.61-.81-1.53-.81-2.51-2.09-.99-1.29-1.46-2.9-.48-1.62-.48-3.24t.4-2.99q.4-1.36 1.14-2.38.75-1.01 1.78-1.58 1.03-.57 2.27-.57.73 0 1.44.3.72.3 1.29.85.57.56.92 1.35.35.8.35 1.81 0 1.3-.45 2.45-.44 1.14-1.22 2.12-.78.99-1.86 1.81-1.08.83-2.31 1.43zm-.95-2.06q.98-.42 1.79-1.05.81-.63 1.38-1.4.57-.76.89-1.6.31-.84.31-1.7 0-.95-.47-1.44-.48-.49-1.11-.49-.86 0-1.46.47-.6.48-.99 1.24-.38.76-.55 1.7-.18.93-.18 1.86 0 .57.12 1.2.11.64.27 1.21zm17.55 2.06q.66.92 1.71 1.48 1.05.55 2.57.55 1.56 0 2.83-.74 1.27-.75 2.31-1.96 1.05-1.2 1.88-2.69.82-1.5 1.49-2.99.16-.35.44-.52.29-.18.64-.18.54 0 .87.39.33.38.33.82 0 .16-.03.27-.03.11-.09.24-2.19 4.82-4.78 7.27-2.59 2.44-5.86 2.5-2.09 0-3.62-.81-1.52-.81-2.5-2.09-.99-1.29-1.46-2.9-.48-1.62-.48-3.24t.4-2.99q.39-1.36 1.14-2.38.75-1.01 1.78-1.58 1.03-.57 2.27-.57.73 0 1.44.3.72.3 1.29.85.57.56.92 1.35.35.8.35 1.81 0 1.3-.45 2.45-.44 1.14-1.22 2.12-.78.99-1.86 1.81-1.08.83-2.31 1.43zm-.96-2.06q.99-.42 1.8-1.05.81-.63 1.38-1.4.57-.76.89-1.6.31-.84.31-1.7 0-.95-.47-1.44-.48-.49-1.11-.49-.86 0-1.46.47-.61.48-.99 1.24t-.55 1.7q-.18.93-.18 1.86 0 .57.11 1.2.12.64.27 1.21zm20.79 2.69q.51-1.04 1.18-2.3.66-1.25 1.43-2.54.76-1.28 1.6-2.55.84-1.27 1.76-2.41.92-1.11 1.86-1.6.93-.5 1.76-.5 1.65 0 2.44 1.21t.79 2.98q0 .42-.04 1-.05.59-.1 1.26-.05.66-.09 1.34-.05.69-.05 1.29 0 .76.08 1.46t.3 1.22q.22.53.63.83.42.3 1.08.3 1.21 0 2.35-.94 1.15-.93 2.11-2.22.97-1.28 1.69-2.62.71-1.33 1.06-2.16.16-.34.46-.54.3-.19.65-.19.54 0 .87.4.34.4.34.84 0 .22-.1.45-.13.25-.51 1.04-.38.8-1 1.83t-1.44 2.19q-.83 1.16-1.83 2.11t-2.15 1.59q-1.16.63-2.43.63-1.43 0-2.32-.55-.89-.56-1.4-1.46-.5-.91-.68-2-.17-1.1-.17-2.21 0-.48.04-1.08.05-.6.13-1.27.08-.66.13-1.33t.05-1.27q0-1.02-.32-1.38-.32-.37-.57-.37-.51 0-1.16.59-.65.59-1.37 1.54-.71.95-1.46 2.14-.74 1.19-1.39 2.37-.65 1.17-1.21 2.23-.55 1.07-.87 1.77-.64 1.33-1.27 1.79-.64.46-1.3.46-.92 0-1.48-.56-.55-.55-.55-1.57 0-.22.06-.87t.16-1.56q.09-.9.19-1.95.09-1.04.19-2.08.1-1.03.16-1.92.06-.88.06-1.49 0-.79-.06-1.52t-.26-.89q-.28.1-1.01 1.19-.73 1.1-1.87 3.86-.16.35-.48.54-.32.19-.67.19-.54 0-.85-.37-.32-.36-.32-.84 0-.22.1-.48 1.42-3.39 2.68-4.99 1.25-1.61 2.49-1.61.73 0 1.24.37.5.36.81.97.3.6.44 1.33.14.73.14 1.49 0 .57-.08 1.78-.08 1.2-.2 2.58-.13 1.39-.24 2.75-.11 1.36-.21 2.28zm25.39-8.88q-.19.51-.46 1.14-.27.64-.62 1.33-.28.54-.58.84-.3.31-.78.31-.54 0-.86-.34-.31-.33-.31-.77 0-.16.03-.27.03-.12.16-.37.82-1.59 1.22-2.78.39-1.19.65-2.49-.22-.73-.32-1.24-.09-.5-.09-1.04 0-1.05.44-1.7.44-.65 1.24-.65.73 0 1.16.63.42.64.42 1.56 0 .51-.09 1.01l-.25 1.27q.73 1.81 1.46 3.21t1.3 2.55q.57 1.16.93 2.18.37 1.01.37 2.03 0 1.33-.54 2.54-.54 1.2-1.78 2.03.16.03.32.03h.32q1.8 0 3.33-.82 1.52-.83 2.74-2.15 1.23-1.31 2.18-2.92.95-1.6 1.65-3.19.32-.73.89-.73.54 0 .84.39.3.38.3.82 0 .25-.1.48-.34.85-.9 1.95-.56 1.09-1.33 2.25-.78 1.16-1.8 2.27-1.01 1.11-2.27 1.98-1.25.88-2.74 1.4-1.49.52-3.27.52-2.13 0-3.95-.74-1.83-.75-2.97-2.46-.19-.29-.19-.6 0-.48.37-.84.36-.37.84-.37.5 0 .85.35.04.06.23.21.19.14.46.31.27.18.63.3.37.13.75.13.76 0 1.28-.32.53-.31.84-.77.32-.46.46-.99.15-.52.15-.9 0-.8-.26-1.59-.25-.79-.65-1.59-.4-.79-.86-1.63-.46-.84-.84-1.76z"
            data-horizontal-grow="center" font-size="65" font-weight="400" font-family="Sacramento"
            dominant-baseline="hanging" />
    </svg>
</svg>