<svg xmlns:mydata="http://www.w3.org/2000/svg" mydata:contrastcolor="ffffff" mydata:template="Default" mydata:presentation="2.5" mydata:layouttype="undefined" mydata:specialfontid="undefined" mydata:id1="44" mydata:id2="44" mydata:companyname="Haideri Greens" mydata:companytagline="Green Veggies" xmlns="http://www.w3.org/2000/svg" viewBox="0 0 550 470"><g data-paper-data="{&quot;isGlobalGroup&quot;:true,&quot;bounds&quot;:{&quot;x&quot;:65,&quot;y&quot;:115.80680633361978,&quot;width&quot;:420,&quot;height&quot;:238.38638733276048}}" fill="#00bf6f" stroke-miterlimit="10" font-family="none" font-weight="none" font-size="none" text-anchor="none"><g data-paper-data="{&quot;isSecondaryText&quot;:true}"><path d="M136.278 342.722c.51 0 .984.026 1.424.077a11.262 11.262 0 012.437.555c.38.131.764.277 1.15.438v1.223a10.904 10.904 0 00-.977-.547 8.103 8.103 0 00-1.118-.45 8.87 8.87 0 00-2.763-.42c-1.073 0-2.009.114-2.808.339-.799.225-1.464.547-1.995.965-.53.418-.929.928-1.194 1.528-.266.601-.399 1.277-.399 2.028 0 .702.13 1.35.39 1.942.26.593.655 1.104 1.183 1.533.528.429 1.19.764 1.983 1.005.794.242 1.724.362 2.791.362.419 0 .833-.016 1.243-.048.41-.032.798-.074 1.163-.125.364-.05.697-.107.997-.169.3-.061.555-.124.764-.189v-3.354h-4.497v-.941h5.503v4.858c-.397.14-.798.263-1.203.37-.405.108-.823.198-1.255.27-.431.072-.88.127-1.343.165-.464.037-.95.056-1.46.056-1.04 0-2.006-.116-2.896-.35-.89-.233-1.661-.587-2.313-1.062a5.037 5.037 0 01-1.532-1.79c-.37-.718-.555-1.563-.555-2.533 0-.65.085-1.24.257-1.774a4.985 4.985 0 01.728-1.44 5.028 5.028 0 011.134-1.114 6.537 6.537 0 011.472-.784 9.053 9.053 0 011.742-.467 11.73 11.73 0 011.947-.157z" data-paper-data="{&quot;glyphName&quot;:&quot;G&quot;,&quot;glyphIndex&quot;:0,&quot;firstGlyphOfWord&quot;:true,&quot;word&quot;:1}"/><path d="M158.245 349.246v4.73h-1.006v-11.053h5.503c.842 0 1.563.066 2.163.197.601.132 1.093.33 1.477.596.383.265.663.596.84.993.177.397.266.86.266 1.392 0 .826-.217 1.487-.652 1.983-.434.496-1.134.835-2.1 1.017l3.773 4.875h-1.263l-3.563-4.762a12.45 12.45 0 01-.941.032zm8.205-3.145c0-.472-.083-.854-.25-1.147-.166-.292-.436-.518-.812-.68-.375-.16-.867-.269-1.476-.325a24.93 24.93 0 00-2.24-.085h-3.427v4.44h3.395c.884 0 1.633-.025 2.244-.076.611-.05 1.107-.155 1.488-.313.38-.159.656-.381.825-.668.169-.287.253-.669.253-1.146z" data-paper-data="{&quot;glyphName&quot;:&quot;R&quot;,&quot;glyphIndex&quot;:1,&quot;word&quot;:1}"/><path d="M182.283 353.976v-11.053h9.21v.941h-8.116v3.805h7.707v.933h-7.707v4.433h8.238v.941z" data-paper-data="{&quot;glyphName&quot;:&quot;E&quot;,&quot;glyphIndex&quot;:2,&quot;word&quot;:1}"/><path d="M205.885 353.976v-11.053h9.21v.941h-8.116v3.805h7.707v.933h-7.707v4.433h8.238v.941z" data-paper-data="{&quot;glyphName&quot;:&quot;E&quot;,&quot;glyphIndex&quot;:3,&quot;word&quot;:1}"/><path d="M240.676 353.976l-9.605-9.734v9.734h-1.006v-11.053h1.11l9.605 9.766v-9.766h.99v11.053z" data-paper-data="{&quot;glyphName&quot;:&quot;N&quot;,&quot;glyphIndex&quot;:4,&quot;lastGlyphOfWord&quot;:true,&quot;word&quot;:1}"/><path d="M277.556 353.976h-1.504l-5.518-11.053h1.126l5.172 10.361 5.173-10.36h1.118z" data-paper-data="{&quot;glyphName&quot;:&quot;V&quot;,&quot;glyphIndex&quot;:5,&quot;firstGlyphOfWord&quot;:true,&quot;word&quot;:2}"/><path d="M296.99 353.976v-11.053h9.212v.941h-8.117v3.805h7.706v.933h-7.706v4.433h8.237v.941z" data-paper-data="{&quot;glyphName&quot;:&quot;E&quot;,&quot;glyphIndex&quot;:6,&quot;word&quot;:2}"/><path d="M327.51 342.722c.51 0 .984.026 1.424.077a11.262 11.262 0 012.438.555c.38.131.764.277 1.15.438v1.223a10.904 10.904 0 00-.978-.547 8.103 8.103 0 00-1.118-.45 8.87 8.87 0 00-2.763-.42c-1.072 0-2.008.114-2.807.339-.8.225-1.464.547-1.995.965-.531.418-.93.928-1.195 1.528-.265.601-.398 1.277-.398 2.028 0 .702.13 1.35.39 1.942.26.593.654 1.104 1.183 1.533.528.429 1.189.764 1.983 1.005.793.242 1.724.362 2.79.362.42 0 .833-.016 1.244-.048.41-.032.797-.074 1.162-.125.365-.05.697-.107.998-.169.3-.061.555-.124.764-.189v-3.354h-4.497v-.941h5.502v4.858c-.397.14-.797.263-1.202.37-.405.108-.823.198-1.255.27-.432.072-.88.127-1.344.165-.463.037-.95.056-1.46.056-1.04 0-2.005-.116-2.896-.35-.89-.233-1.66-.587-2.312-1.062a5.037 5.037 0 01-1.533-1.79c-.37-.718-.555-1.563-.555-2.533 0-.65.086-1.24.258-1.774a4.985 4.985 0 01.728-1.44 5.028 5.028 0 011.134-1.114 6.537 6.537 0 011.472-.784 9.053 9.053 0 011.742-.467 11.73 11.73 0 011.946-.157z" data-paper-data="{&quot;glyphName&quot;:&quot;G&quot;,&quot;glyphIndex&quot;:7,&quot;word&quot;:2}"/><path d="M354.917 342.722c.51 0 .984.026 1.424.077a11.262 11.262 0 012.437.555c.381.131.764.277 1.15.438v1.223a10.904 10.904 0 00-.977-.547 8.103 8.103 0 00-1.118-.45 8.87 8.87 0 00-2.763-.42c-1.073 0-2.009.114-2.808.339-.799.225-1.464.547-1.995.965-.53.418-.929.928-1.194 1.528-.266.601-.398 1.277-.398 2.028 0 .702.13 1.35.39 1.942.26.593.654 1.104 1.182 1.533.529.429 1.19.764 1.983 1.005.794.242 1.724.362 2.792.362.418 0 .832-.016 1.242-.048.41-.032.798-.074 1.163-.125.364-.05.697-.107.997-.169.3-.061.555-.124.764-.189v-3.354h-4.496v-.941h5.502v4.858c-.397.14-.798.263-1.203.37-.405.108-.823.198-1.255.27-.431.072-.879.127-1.343.165-.464.037-.95.056-1.46.056-1.04 0-2.006-.116-2.896-.35-.89-.233-1.661-.587-2.313-1.062a5.037 5.037 0 01-1.532-1.79c-.37-.718-.555-1.563-.555-2.533 0-.65.086-1.24.257-1.774a4.985 4.985 0 01.728-1.44 5.028 5.028 0 011.135-1.114 6.537 6.537 0 011.472-.784 9.053 9.053 0 011.741-.467 11.73 11.73 0 011.947-.157z" data-paper-data="{&quot;glyphName&quot;:&quot;G&quot;,&quot;glyphIndex&quot;:8,&quot;word&quot;:2}"/><path d="M373.377 353.976v-11.053h1.006v11.053z" data-paper-data="{&quot;glyphName&quot;:&quot;I&quot;,&quot;glyphIndex&quot;:9,&quot;word&quot;:2}"/><path d="M387.546 353.976v-11.053h9.21v.941h-8.116v3.805h7.707v.933h-7.707v4.433h8.237v.941z" data-paper-data="{&quot;glyphName&quot;:&quot;E&quot;,&quot;glyphIndex&quot;:10,&quot;word&quot;:2}"/><path d="M420.077 344.556c-.209-.102-.45-.21-.724-.326a6.854 6.854 0 00-.937-.31 10.595 10.595 0 00-2.65-.322c-.65 0-1.227.038-1.734.114-.507.075-.936.191-1.287.35-.351.158-.62.357-.805.599a1.373 1.373 0 00-.277.86c0 .28.087.523.261.733.175.209.41.394.708.555.298.16.647.307 1.046.438.4.131.823.255 1.271.37.448.115.909.232 1.384.35.474.118.935.245 1.383.382.448.137.872.29 1.271.459.4.169.748.366 1.046.59.298.226.534.483.708.773.174.29.261.625.261 1.006 0 .413-.077.773-.233 1.082a2.495 2.495 0 01-.631.796 3.554 3.554 0 01-.934.555 6.519 6.519 0 01-1.142.35 9.885 9.885 0 01-1.255.18c-.431.036-.856.053-1.275.053-.96 0-1.83-.07-2.61-.209-.78-.14-1.524-.33-2.232-.571v-1.23c.729.434 1.5.731 2.312.892.813.16 1.667.241 2.562.241.633 0 1.218-.037 1.754-.112.536-.075 1-.195 1.392-.358.391-.164.696-.377.913-.64.217-.263.326-.584.326-.965 0-.306-.088-.574-.262-.804a2.375 2.375 0 00-.708-.608 5.588 5.588 0 00-1.046-.462c-.4-.134-.821-.26-1.267-.374a55.006 55.006 0 00-1.38-.338c-.474-.11-.934-.23-1.379-.358a13.227 13.227 0 01-1.267-.435 4.82 4.82 0 01-1.045-.567 2.643 2.643 0 01-.708-.752 1.854 1.854 0 01-.262-.99c0-.37.07-.698.21-.985.139-.287.33-.535.575-.744.244-.209.53-.385.856-.527a5.794 5.794 0 011.05-.338c.373-.083.76-.143 1.162-.18a12.807 12.807 0 012.41 0c.383.037.753.087 1.11.148.356.062.705.133 1.046.213.34.08.685.167 1.033.258z" data-paper-data="{&quot;glyphName&quot;:&quot;S&quot;,&quot;glyphIndex&quot;:11,&quot;lastGlyphOfWord&quot;:true,&quot;word&quot;:2}"/></g><g data-paper-data="{&quot;isPrimaryText&quot;:true}"><path d="M92.815 330.22v-13.662h-25.25v13.661H65v-28.184h2.564v12.143h25.251v-12.143h2.564v28.184z" data-paper-data="{&quot;glyphName&quot;:&quot;H&quot;,&quot;glyphIndex&quot;:0,&quot;firstGlyphOfWord&quot;:true,&quot;word&quot;:1}"/><path d="M130.682 330.22l-3.877-7.426h-19.138l-3.877 7.425h-2.81l14.748-28.184h3.016l14.748 28.184zm-13.436-25.703l-8.328 15.918h16.636z" data-paper-data="{&quot;glyphName&quot;:&quot;A&quot;,&quot;glyphIndex&quot;:1,&quot;word&quot;:1}"/><path d="M139.03 330.22v-28.185h2.565v28.184z" data-paper-data="{&quot;glyphName&quot;:&quot;I&quot;,&quot;glyphIndex&quot;:2,&quot;word&quot;:1}"/><path d="M181.862 316.106c0 1.806-.188 3.409-.565 4.81-.376 1.402-.906 2.623-1.59 3.662a10.33 10.33 0 01-2.492 2.646 12.857 12.857 0 01-3.261 1.744 19.122 19.122 0 01-3.898.954 31.56 31.56 0 01-4.42.297h-14.544v-28.184h14.503c2.311 0 4.458.225 6.44.677 1.984.45 3.703 1.22 5.16 2.307 1.456 1.087 2.598 2.534 3.426 4.339.827 1.805 1.24 4.054 1.24 6.748zm-2.647 0c0-1.531-.15-2.885-.45-4.061-.302-1.176-.733-2.198-1.293-3.067a8.13 8.13 0 00-2.051-2.184 10.759 10.759 0 00-2.729-1.426 15.567 15.567 0 00-3.302-.77 30.286 30.286 0 00-3.795-.225h-11.939v23.487h11.939c2.01 0 3.85-.181 5.518-.543 1.668-.363 3.1-.992 4.297-1.888 1.197-.895 2.13-2.099 2.8-3.61.67-1.51 1.005-3.415 1.005-5.713z" data-paper-data="{&quot;glyphName&quot;:&quot;D&quot;,&quot;glyphIndex&quot;:3,&quot;word&quot;:1}"/><path d="M189.328 330.22v-28.185h23.487v2.4h-20.697v9.702h19.651v2.38h-19.651v11.302h21.005v2.4z" data-paper-data="{&quot;glyphName&quot;:&quot;E&quot;,&quot;glyphIndex&quot;:4,&quot;word&quot;:1}"/><path d="M223.605 318.158v12.061h-2.564v-28.184h14.03c2.148 0 3.987.167 5.519.502 1.531.335 2.786.841 3.764 1.518.978.677 1.692 1.521 2.143 2.533.452 1.012.677 2.195.677 3.55 0 2.105-.553 3.79-1.661 5.056-1.108 1.265-2.892 2.13-5.354 2.594l9.62 12.431h-3.22l-9.087-12.143a31.801 31.801 0 01-2.4.082zm20.923-8.02c0-1.204-.212-2.179-.636-2.924-.424-.745-1.114-1.323-2.071-1.733-.958-.41-2.212-.687-3.765-.831-1.552-.144-3.456-.215-5.712-.215h-8.739v11.323h8.657c2.256 0 4.164-.065 5.723-.195 1.559-.13 2.824-.397 3.794-.8.971-.404 1.672-.971 2.103-1.703.43-.731.646-1.706.646-2.923z" data-paper-data="{&quot;glyphName&quot;:&quot;R&quot;,&quot;glyphIndex&quot;:5,&quot;word&quot;:1}"/><path d="M256.036 330.22v-28.185h2.564v28.184z" data-paper-data="{&quot;glyphName&quot;:&quot;I&quot;,&quot;glyphIndex&quot;:6,&quot;lastGlyphOfWord&quot;:true,&quot;word&quot;:1}"/><path d="M300.487 301.522c1.3 0 2.51.065 3.631.195s2.195.314 3.22.553c1.026.24 2.024.527 2.995.862.971.335 1.949.708 2.934 1.118v3.118c-.78-.492-1.61-.957-2.493-1.395a20.664 20.664 0 00-2.85-1.149 22.62 22.62 0 00-3.283-.78 23.313 23.313 0 00-3.764-.286c-2.735 0-5.121.287-7.159.861-2.038.575-3.733 1.395-5.087 2.462-1.354 1.066-2.37 2.366-3.046 3.897-.677 1.532-1.016 3.255-1.016 5.17 0 1.79.332 3.442.995 4.953.663 1.511 1.668 2.814 3.015 3.908 1.348 1.094 3.033 1.949 5.057 2.564 2.024.615 4.396.923 7.118.923 1.067 0 2.123-.04 3.17-.123a49.35 49.35 0 002.963-.318c.93-.13 1.778-.273 2.544-.43a21.367 21.367 0 001.948-.483v-8.554h-11.466v-2.4h14.03v12.39c-1.011.356-2.034.67-3.066.944a35.28 35.28 0 01-3.2.687c-1.1.185-2.243.325-3.426.42a46.204 46.204 0 01-3.723.144c-2.653 0-5.114-.297-7.384-.892-2.27-.595-4.236-1.498-5.898-2.708a12.845 12.845 0 01-3.908-4.564c-.943-1.833-1.415-3.986-1.415-6.462 0-1.654.219-3.162.656-4.523a12.71 12.71 0 011.857-3.671 12.822 12.822 0 012.892-2.841 16.67 16.67 0 013.754-2 23.084 23.084 0 014.441-1.19c1.586-.267 3.241-.4 4.964-.4z" data-paper-data="{&quot;glyphName&quot;:&quot;G&quot;,&quot;glyphIndex&quot;:7,&quot;firstGlyphOfWord&quot;:true,&quot;word&quot;:2}"/><path d="M324.692 318.158v12.061h-2.564v-28.184h14.031c2.147 0 3.986.167 5.518.502 1.532.335 2.786.841 3.764 1.518.978.677 1.692 1.521 2.144 2.533.45 1.012.677 2.195.677 3.55 0 2.105-.554 3.79-1.662 5.056-1.108 1.265-2.892 2.13-5.354 2.594l9.62 12.431h-3.22l-9.087-12.143a31.801 31.801 0 01-2.4.082zm20.923-8.02c0-1.204-.212-2.179-.636-2.924-.423-.745-1.114-1.323-2.071-1.733-.958-.41-2.212-.687-3.764-.831-1.553-.144-3.457-.215-5.713-.215h-8.739v11.323h8.657c2.256 0 4.164-.065 5.723-.195 1.559-.13 2.824-.397 3.795-.8.97-.404 1.671-.971 2.102-1.703.431-.731.646-1.706.646-2.923z" data-paper-data="{&quot;glyphName&quot;:&quot;R&quot;,&quot;glyphIndex&quot;:8,&quot;word&quot;:2}"/><path d="M357.123 330.22v-28.185h23.487v2.4h-20.697v9.702h19.651v2.38h-19.651v11.302h21.005v2.4z" data-paper-data="{&quot;glyphName&quot;:&quot;E&quot;,&quot;glyphIndex&quot;:9,&quot;word&quot;:2}"/><path d="M388.836 330.22v-28.185h23.487v2.4h-20.697v9.702h19.65v2.38h-19.65v11.302h21.005v2.4z" data-paper-data="{&quot;glyphName&quot;:&quot;E&quot;,&quot;glyphIndex&quot;:10,&quot;word&quot;:2}"/><path d="M447.605 330.22l-24.492-24.821v24.82h-2.564v-28.184h2.83l24.493 24.902v-24.902h2.523v28.184z" data-paper-data="{&quot;glyphName&quot;:&quot;N&quot;,&quot;glyphIndex&quot;:11,&quot;word&quot;:2}"/><path d="M482.641 306.199a37.646 37.646 0 00-1.846-.831 17.48 17.48 0 00-2.39-.79 27.089 27.089 0 00-3.026-.584 27.017 27.017 0 00-3.733-.236c-1.655 0-3.128.095-4.42.287-1.293.191-2.387.489-3.282.892-.896.404-1.58.913-2.052 1.528-.471.616-.707 1.347-.707 2.195 0 .711.222 1.334.666 1.867.445.533 1.046 1.005 1.805 1.415.76.41 1.648.783 2.667 1.118 1.019.335 2.1.65 3.241.944 1.142.294 2.318.591 3.528.892 1.21.301 2.387.626 3.529.975 1.141.348 2.222.738 3.24 1.169 1.02.43 1.908.933 2.667 1.507.76.575 1.36 1.231 1.805 1.97.445.738.667 1.593.667 2.564 0 1.053-.198 1.972-.595 2.759a6.363 6.363 0 01-1.61 2.03 9.062 9.062 0 01-2.38 1.416c-.909.376-1.88.673-2.912.892a25.21 25.21 0 01-3.2.462 40.39 40.39 0 01-3.252.133c-2.448 0-4.666-.178-6.656-.533a38.733 38.733 0 01-5.692-1.457v-3.138a18.46 18.46 0 005.897 2.277c2.072.41 4.25.615 6.533.615a32.35 32.35 0 004.472-.287c1.368-.191 2.55-.496 3.549-.913.998-.417 1.774-.96 2.328-1.63.554-.67.83-1.491.83-2.462 0-.78-.221-1.463-.666-2.051-.444-.588-1.046-1.105-1.805-1.55-.759-.444-1.648-.837-2.667-1.179a47.985 47.985 0 00-3.23-.953 140.22 140.22 0 00-3.518-.862 67.515 67.515 0 01-3.518-.913 33.732 33.732 0 01-3.231-1.108c-1.019-.41-1.908-.892-2.667-1.446-.759-.554-1.36-1.193-1.805-1.918-.444-.724-.667-1.565-.667-2.523 0-.943.178-1.78.534-2.513a5.832 5.832 0 011.466-1.897 8.585 8.585 0 012.185-1.344c.834-.362 1.727-.65 2.677-.861.95-.212 1.938-.366 2.964-.462a32.657 32.657 0 013.036-.143c1.094 0 2.13.048 3.108.143.978.096 1.921.223 2.83.38.91.157 1.799.338 2.667.543.869.206 1.747.424 2.636.657z" data-paper-data="{&quot;glyphName&quot;:&quot;S&quot;,&quot;glyphIndex&quot;:12,&quot;lastGlyphOfWord&quot;:true,&quot;word&quot;:2}"/></g><g data-paper-data="{&quot;selectedEffects&quot;:{&quot;container&quot;:&quot;&quot;,&quot;transformation&quot;:&quot;&quot;,&quot;pattern&quot;:&quot;&quot;},&quot;initialText&quot;:&quot;H&quot;,&quot;isIcon&quot;:&quot;true&quot;,&quot;iconType&quot;:&quot;initial&quot;,&quot;iconStyle&quot;:&quot;standalone&quot;,&quot;rawInitialId&quot;:540,&quot;monogramSpecial&quot;:&quot;organic&quot;,&quot;bounds&quot;:{&quot;x&quot;:200.8308641589549,&quot;y&quot;:115.80680633361978,&quot;width&quot;:148.33827168209018,&quot;height&quot;:157.67589993936917},&quot;fillRule&quot;:&quot;nonzero&quot;,&quot;suitableAsStandaloneIcon&quot;:true}"><path d="M220.924 261.545l-2.6.236c-4.255.237-7.21 3.664-7.21 7.683v.71l.118 2.718 2.6-.237c4.138-.354 7.21-3.664 7.21-7.8v-.592zm16.194 11.347l-.237-1.655c-.354-2.246-2.127-3.9-4.137-3.9-.236 0-.59.118-.709.118l-1.655.118.237 1.536c.236 2.128 2.127 3.783 4.373 3.783h.591zm-30.614-116.898l.828-1.418c.473-.591.709-1.3.709-1.891 0-1.537-1.064-2.955-2.837-3.783l-1.536-.709-.828 1.3c-.473.71-.59 1.3-.59 1.891 0 1.537.945 3.074 2.718 3.9zm4.61-6.264l1.655-1.3c1.536-.946 2.246-2.72 2.246-4.492 0-1.182-.237-2.364-.946-3.31l-1.182-1.654-1.537 1.063c-1.536 1.182-2.363 2.955-2.363 4.728 0 1.182.354 2.364 1.063 3.428zm-5.319-1.182l.946-.71c.827-.59 1.418-1.654 1.418-2.718 0-.71-.236-1.419-.827-2.01l-.71-.827-.945.71c-.827.59-1.182 1.654-1.182 2.6 0 .709.236 1.418.71 2.009zM221.87 263.79l-.473 2.128c-.118.355-.118.827-.118 1.182 0 2.719 1.891 5.2 4.61 5.792l2.01.59.472-2.009c.118-.354.118-.945.118-1.3 0-2.718-1.773-5.2-4.61-5.91zm-13.238-81.201l-1.3-.473c-.237-.118-.473-.118-.828-.118-1.654 0-3.191 1.182-3.546 2.836l-.236 1.3 1.064.237c.354.118.59.118.945.118 1.655 0 3.31-1.182 3.546-2.837zm43.26-65.6h-.709c-.945.118-1.773.827-1.773 1.891v.355l.118.59.591-.118c.946 0 1.773-.945 1.773-1.89v-.237zm-43.024 38.296l2.01 1.064a7.332 7.332 0 003.782 1.063c2.364 0 4.728-1.182 6.264-3.427l1.064-2.128-2.01-1.3c-1.181-.591-2.481-1.064-3.781-1.064-2.364 0-4.728 1.3-6.147 3.546zm2.6-21.512h-1.654c-3.073 0-5.437 2.246-5.437 5.2v1.774h1.773c2.837 0 5.319-2.364 5.319-5.201zm-.827 124.58l-2.955.828c-4.018.945-6.855 4.61-6.855 8.51 0 .473.118 1.064.236 1.655l.591 2.718 2.837-.827c4.019-1.064 6.974-4.61 6.974-8.51 0-.473-.119-1.064-.237-1.537zm-1.89-55.67l-2.601 2.363c-2.364 1.891-3.428 4.846-3.428 7.683 0 2.246.71 4.61 2.364 6.5l2.246 2.483 2.6-2.128c2.364-2.009 3.428-4.846 3.428-7.682 0-2.364-.828-4.61-2.482-6.62zm-.355 28.485l-2.955 3.782c-2.364 2.719-3.428 6.028-3.428 9.338 0 4.019 1.655 7.92 5.082 10.756l3.546 3.191 3.192-3.782c2.245-2.837 3.31-6.028 3.31-9.338 0-4.019-1.656-8.037-4.847-10.874zm17.73 2.837l-.355-3.428c-.71-5.083-5.083-8.747-10.047-8.747-.473 0-.946 0-1.419.118l-3.427.473.59 3.31c.828 5.082 4.965 8.865 9.93 8.865.472 0 .945 0 1.3-.119zm-10.639-17.966l1.537-.71c2.01-.827 3.073-2.718 3.073-4.61 0-.59 0-1.3-.354-2.009l-.473-1.536-1.655.59c-1.891.71-3.073 2.601-3.073 4.61 0 .71.118 1.3.473 2.128zm-13.001-41.37l1.3 2.246a7.91 7.91 0 006.737 3.782c1.3 0 2.719-.472 4.019-1.182l2.246-1.3-1.419-2.246c-1.418-2.482-4.019-3.782-6.619-3.782-1.418 0-2.718.355-4.019 1.182zm15.484-12.647l-1.064 3.428c-.237 1.064-.473 2.01-.473 3.073 0 4.492 2.955 8.51 7.446 9.929l3.31 1.063 1.064-3.427c.354-1.064.473-2.01.473-3.073 0-4.492-2.955-8.51-7.329-9.93zm33.45 7.565l.236-1.537c0-.236.118-.59.118-.709 0-2.128-1.655-4.019-3.782-4.373l-1.419-.237-.354 1.419c0 .236-.118.59-.118.709 0 2.127 1.536 4.019 3.782 4.373zm-46.452 23.758l4.491 2.245c2.01.946 3.9 1.3 5.91 1.3 5.437 0 10.638-3.073 13.12-8.155l2.01-4.373-4.374-2.128c-2.01-.946-4.137-1.3-6.146-1.3-5.319 0-10.52 2.955-12.884 8.037zm31.559-34.16l2.364 1.537c1.418.946 2.955 1.418 4.491 1.418 2.719 0 5.2-1.3 6.856-3.664l1.654-2.246-2.364-1.654c-1.418-.946-3.073-1.3-4.61-1.3-2.718 0-5.2 1.181-6.737 3.664zm-18.44-42.314l-2.718 7.21c-1.064 2.6-1.418 5.319-1.418 7.919 0 9.22 5.673 17.966 14.893 21.276l7.21 2.718 2.718-7.328c.946-2.6 1.419-5.32 1.419-7.92 0-9.219-5.674-17.847-14.893-21.275zm15.366 115.124l-3.427 5.083a16.903 16.903 0 00-2.955 9.574c0 5.791 2.955 11.583 8.155 15.01l5.083 3.429 3.31-5.083c2.009-3.073 2.954-6.5 2.954-9.81a17.814 17.814 0 00-8.037-14.893zm2.955-45.742l-2.6.827c-3.428.827-5.673 4.019-5.673 7.565 0 .709.118 1.418.354 2.246l.71 2.482 2.481-.71c3.546-1.063 5.792-4.136 5.792-7.564 0-.71-.118-1.419-.236-2.246zm13.948 2.6l.827-5.2c.118-.946.237-1.774.237-2.601 0-7.683-5.556-14.538-13.357-15.838l-5.319-.828-.827 5.437c-.118.946-.237 1.773-.237 2.6 0 7.802 5.556 14.303 13.357 15.484zm-22.221 43.733l3.19-1.064c4.374-1.418 7.093-5.2 7.093-9.574 0-.945-.118-2.009-.355-2.954l-.945-3.192-3.31 1.064a10 10 0 00-7.092 9.574c0 .946.118 1.891.355 2.837zm15.129-5.673l-.946 2.955c-.354.945-.472 1.773-.472 2.718 0 3.783 2.363 7.21 6.146 8.51l2.955.828.945-2.837c.237-.827.355-1.773.355-2.718 0-3.783-2.364-7.329-6.146-8.51zm-2.6-8.747l.236 2.364c.473 3.428 3.31 5.91 6.737 5.91h.828l2.127-.355-.236-2.245c-.355-3.428-3.428-5.91-6.738-5.91h-.709zm-4.137-8.51l1.654 2.482c1.655 2.719 4.256 4.137 7.21 4.137 1.537 0 3.074-.473 4.61-1.3l2.482-1.537-1.536-2.482c-1.655-2.6-4.492-4.137-7.329-4.137-1.536 0-3.073.473-4.61 1.418zm-12.057-.946l2.6.946c.946.354 2.01.59 2.956.59 3.31 0 6.382-1.89 7.564-5.2l1.064-2.6-2.6-.946c-.946-.473-2.01-.59-2.955-.59-3.191 0-6.383 2.009-7.683 5.082zm17.14-3.073l2.127.355c.472.118.709.118 1.182.118 3.073 0 5.791-2.246 6.382-5.319l.473-2.246-2.246-.354h-1.3c-3.073 0-5.792 2.009-6.264 5.2zm-7.802 58.626l-.827-1.654c-.946-2.01-2.955-3.31-5.083-3.31-.709 0-1.418.236-2.127.591l-1.655.827.709 1.655c.946 1.891 2.955 3.191 4.964 3.191.71 0 1.537-.236 2.246-.472zm-13.71-26.476l-.828 2.01c-.473.827-.71 1.654-.71 2.6 0 2.364 1.419 4.728 3.783 5.791l2.01.946.945-2.01c.354-.827.59-1.654.59-2.6 0-2.364-1.418-4.728-3.782-5.791zm10.992-25.885l-2.719-.71c-.591-.118-1.3-.118-1.891-.118-3.664 0-6.856 2.364-7.801 6.028l-.591 2.6 2.6.71c.591.118 1.182.118 1.891.118 3.546 0 6.856-2.364 7.801-6.028zm5.2-93.495l.71 2.955c1.063 4.373 4.846 7.328 9.1 7.328.71 0 1.537-.118 2.365-.354l2.955-.71-.71-3.19c-.945-4.256-4.846-7.21-9.1-7.21-.828 0-1.656.117-2.365.354zm4.61 32.15l2.6.355h.71c3.782 0 7.091-2.837 7.564-6.738l.118-2.6-2.364-.118h-.827c-3.782 0-7.092 2.718-7.565 6.619zm-18.32 56.262l1.418-1.3c1.3-1.064 2.009-2.6 2.009-4.137 0-1.3-.591-2.482-1.418-3.546l-1.064-1.418-1.537 1.182c-1.182 1.182-1.89 2.718-1.89 4.255 0 1.3.354 2.364 1.181 3.428zm23.284 52.125l-1.3 2.01c-.71 1.182-1.182 2.482-1.182 3.782 0 2.128 1.182 4.373 3.191 5.674l1.892 1.418 1.418-2.01c.71-1.181 1.182-2.482 1.182-3.782 0-2.246-1.182-4.373-3.191-5.791zm-20.566-5.555l-2.128-.71c-.59-.236-1.182-.236-1.773-.236-2.836 0-5.319 1.773-6.146 4.61l-.591 2.128 2.128.59c.709.237 1.182.237 1.773.237 2.718 0 5.318-1.773 6.028-4.61zm18.911 19.266l-.472-1.182c-.473-1.3-1.773-2.127-3.073-2.127-.473 0-.946.118-1.419.236l-1.064.473.591 1.064c.473 1.3 1.655 2.127 2.955 2.127.473 0 .946-.118 1.419-.354zm4.256-13.829l.709-.59c.59-.592.945-1.301.945-2.01 0-.71-.236-1.419-.827-2.01l-.591-.59-.591.59c-.591.591-.946 1.419-.946 2.128 0 .591.237 1.3.71 1.891zm-39.006-59.453l.591 1.654c.828 2.128 2.955 3.31 4.965 3.31a4.9 4.9 0 001.89-.355l1.656-.59-.71-1.774c-.827-2.009-2.718-3.31-4.728-3.31-.709 0-1.418.12-2.009.474zm40.66-6.856l-1.89-1.064c-1.183-.59-2.365-.945-3.429-.945-2.364 0-4.491 1.182-5.791 3.191l-1.064 1.891 1.891 1.182c1.064.591 2.246.946 3.428.946 2.246 0 4.373-1.182 5.673-3.31zm-31.677-34.04l1.773 2.127c1.655 1.773 3.783 2.718 6.028 2.718 1.773 0 3.665-.59 5.083-1.89l2.246-1.656-1.892-2.009c-1.654-1.773-3.782-2.837-6.146-2.837-1.773 0-3.428.591-4.964 1.891zm-13.71-24.704l2.954-1.3c3.664-1.419 5.91-4.965 5.91-8.747 0-1.182-.236-2.482-.709-3.546l-1.3-3.073-2.837 1.3c-3.664 1.419-5.91 4.964-5.91 8.629 0 1.3.118 2.482.71 3.664zm35.813-2.955l.473 2.246c.828 3.073 3.428 5.082 6.501 5.082.473 0 .946-.118 1.537-.236l2.245-.591-.59-2.128c-.946-3.073-3.428-5.082-6.502-5.082-.472 0-.945.118-1.536.236zm-35.459 95.622l.118-1.064v-.473c0-1.536-1.064-2.836-2.6-3.073l-.946-.118-.236 1.064v.236c0 1.537 1.182 3.073 2.6 3.31zm46.688 22.93l.118-1.182v-.354c0-1.537-1.063-2.837-2.6-3.073l-.946-.237-.118 1.064v.473c0 1.536 1.064 2.837 2.482 3.073zm-37.941-77.537l.472-3.31c.119-.473.119-1.064.119-1.418 0-4.846-3.783-8.865-8.629-9.456l-3.31-.473-.354 3.31v1.063c0 4.965 3.428 9.22 8.51 9.929zm24.348 97.276l.591-1.063c.237-.355.237-.828.237-1.3 0-1.3-.71-2.6-1.891-3.192l-1.064-.473-.473 1.064a3.147 3.147 0 00-.355 1.418c0 1.3.71 2.364 2.01 2.955zm-35.104-35.695l1.3-.237c2.01-.354 3.31-2.127 3.31-4.018 0-.237 0-.591-.119-.946l-.236-1.3-1.3.354c-2.01.355-3.31 2.128-3.31 4.137v.591zm.709-30.377l1.064-.237c1.654-.354 3.073-1.773 3.073-3.546v-.472l-.355-1.182-1.064.236c-1.773.355-2.955 1.655-2.955 3.428v.473zm-1.3-81.439l1.063-.236c1.182-.354 2.01-1.3 2.01-2.482 0-.473-.118-.827-.355-1.3l-.354-.946-1.064.118c-1.182.237-1.891 1.182-1.891 2.483 0 .354.118.945.236 1.3zm31.322-.236v-1.182c0-1.773-1.418-2.837-3.191-2.837h-.591l-1.3.119v1.182c0 1.773 1.418 3.073 3.31 3.073h.354zM328.84 263.2v.472c0 4.019 3.191 7.447 7.21 7.801l2.719.237.118-2.6v-.71c0-4.137-2.955-7.446-7.21-7.683l-2.6-.236zm-14.302 8.628h.591c2.128 0 3.9-1.537 4.255-3.9l.237-1.537-1.537-.118h-.59c-2.247 0-4.138 1.654-4.374 3.9l-.237 1.537zm31.677-117.016c1.773-.71 2.6-2.127 2.6-3.782 0-.71-.118-1.3-.59-1.891l-.71-1.3-1.654.59c-1.773.828-2.719 2.364-2.719 3.9 0 .592.118 1.301.473 2.01l.945 1.182zm-6.264-7.801c.709-1.064 1.182-2.128 1.182-3.428 0-1.773-.946-3.546-2.364-4.61l-1.537-1.063-1.182 1.536c-.827 1.064-1.064 2.246-1.064 3.428 0 1.773.828 3.428 2.246 4.61l1.537 1.064zm7.092-.118c.59-.591.827-1.3.827-2.01 0-1.063-.473-2.009-1.418-2.6l-.946-.827-.71.945a3.21 3.21 0 00-.708 2.01c0 1.063.472 2.127 1.3 2.718l.945.71zM326.12 263.199c-2.719.591-4.61 2.955-4.61 5.674 0 .591.118.946.236 1.418l.355 2.01 2.01-.473c2.836-.71 4.609-3.073 4.609-5.792 0-.354 0-.945-.118-1.3l-.355-2.127zm15.602-80.61c.236 1.654 1.89 2.718 3.546 2.718h.945l1.182-.354-.354-1.3c-.355-1.655-1.773-2.601-3.428-2.601h-.946l-1.3.355zm-42.67-66.073v.236c0 .946.828 1.892 1.891 1.892l.71.118v-.946c0-.945-.828-1.891-1.773-1.891l-.71-.118zm40.897 35.341c-1.419-2.246-3.783-3.428-6.147-3.428-1.3 0-2.6.355-3.782 1.064l-2.01 1.3 1.183 2.01c1.418 2.364 3.664 3.546 6.146 3.546 1.3 0 2.6-.355 3.782-1.064l2.128-1.182zm.827-16.666c0 2.955 2.364 5.2 5.319 5.2h1.773v-1.772c0-2.955-2.482-5.319-5.2-5.319h-1.892zm-2.01 124.817c-.117.591-.236 1.182-.236 1.655 0 3.9 2.955 7.565 6.974 8.51l2.837.828.59-2.837c.119-.473.237-1.182.237-1.655 0-3.9-2.955-7.446-6.974-8.51l-2.836-.71zm.237-55.79c-1.655 1.774-2.364 4.256-2.364 6.502 0 2.955 1.064 5.673 3.546 7.8l2.6 2.128 2.128-2.6c1.655-1.773 2.482-4.373 2.482-6.737 0-2.837-1.182-5.556-3.428-7.447l-2.718-2.246zm-1.3 28.96c-3.31 2.836-4.964 6.855-4.964 10.992 0 3.31 1.063 6.5 3.31 9.22l3.309 3.663 3.546-3.073c3.427-2.837 5.082-6.855 5.082-10.992 0-3.192-.945-6.501-3.31-9.22l-3.19-3.782zm-10.401.236h1.3c4.964 0 9.337-3.664 9.928-8.629l.591-3.428-3.427-.472c-.591-.119-.946-.119-1.419-.119-4.964 0-9.456 3.665-10.047 8.629l-.354 3.428zm7.8-20.094c.237-.71.355-1.418.355-2.128 0-1.89-1.182-3.782-3.073-4.491l-1.537-.71-.709 1.656a5.353 5.353 0 00-.354 1.89c0 2.01 1.063 3.901 3.073 4.61l1.655.71zm10.166-41.015c-1.3-.709-2.719-1.182-4.137-1.182-2.6 0-5.083 1.3-6.501 3.783l-1.3 2.245 2.127 1.3c1.3.828 2.6 1.064 3.9 1.064 2.72 0 5.32-1.182 6.856-3.664l1.3-2.245zm-16.666-10.283c-4.492 1.3-7.21 5.437-7.21 9.929 0 1.064 0 2.01.354 3.073l1.064 3.428 3.31-1.064c4.61-1.537 7.328-5.555 7.328-10.047 0-.946-.118-2.01-.355-3.073l-1.064-3.428zm-28.486 6.146c2.246-.354 3.782-2.245 3.782-4.373 0-.236-.118-.59-.118-.71l-.236-1.536-1.537.237c-2.127.354-3.782 2.246-3.782 4.373 0 .236.118.473.118.71l.236 1.536zm42.788 19.74c-2.364-5.083-7.565-8.156-13.002-8.156-2.01 0-4.019.473-5.91 1.3l-4.492 2.01 2.01 4.49c2.482 5.202 7.683 8.157 13.002 8.157 2.127 0 4.018-.355 6.028-1.3l4.491-2.128zM313 156.466c-1.537-2.364-4.137-3.664-6.856-3.664-1.536 0-3.191.473-4.491 1.418l-2.364 1.537 1.536 2.364c1.655 2.364 4.255 3.546 6.856 3.546 1.536 0 3.191-.355 4.61-1.3l2.245-1.655zm11.82-38.06c-9.338 3.428-15.012 12.056-15.012 21.276 0 2.6.473 5.319 1.419 7.919l2.718 7.21 7.21-2.718c9.101-3.31 14.775-12.057 14.775-21.276 0-2.6-.355-5.2-1.3-7.801l-2.719-7.21zm-13.357 115.834c-5.2 3.428-8.037 8.983-8.037 14.775 0 3.31.945 6.737 2.955 9.81l3.31 5.083 4.963-3.31c5.201-3.31 8.156-9.22 8.156-15.011 0-3.31-.946-6.619-2.955-9.574l-3.31-5.082zm1.3-46.452c-.118.71-.236 1.419-.236 2.128 0 3.428 2.246 6.619 5.673 7.564l2.6.71.71-2.482c.236-.71.354-1.537.354-2.246 0-3.428-2.245-6.501-5.673-7.565l-2.6-.71zm-7.683-.945c7.683-1.3 13.239-7.92 13.239-15.602 0-.828-.119-1.655-.237-2.6l-.827-5.32-5.32.828c-7.682 1.3-13.356 8.037-13.356 15.72 0 .827.119 1.655.237 2.6l.827 5.32zm17.848 41.369c.237-.946.355-1.891.355-2.837 0-4.373-2.837-8.392-7.092-9.692l-3.428-1.064-.827 3.31c-.237.945-.355 2.01-.355 2.955 0 4.255 2.719 8.155 7.092 9.574l3.31.945zm-17.611-1.891a9.023 9.023 0 00-6.028 8.51c0 .946.118 1.891.472 2.837l.946 2.837 2.719-.946c3.9-1.3 6.146-4.728 6.146-8.51 0-.946-.118-1.891-.355-2.837l-.945-2.837zm1.773-9.456h-.828c-3.427 0-6.264 2.482-6.619 5.91l-.354 2.127 2.364.355c.236 0 .59.118.827.118 3.428 0 6.146-2.6 6.62-6.028l.235-2.246zm4.964-9.456c-1.418-.827-2.955-1.3-4.491-1.3-2.955 0-5.792 1.537-7.447 4.137l-1.537 2.6 2.6 1.419c1.42.827 2.956 1.182 4.492 1.182a8.706 8.706 0 007.329-4.02l1.536-2.481zm12.41-2.364c-1.3-3.31-4.254-5.2-7.564-5.2-.945 0-2.01.118-2.955.472l-2.6 1.064 1.064 2.482c1.182 3.31 4.137 5.2 7.446 5.2.946 0 2.128-.236 3.073-.59l2.719-.827zm-16.429-2.718c-.472-3.192-3.31-5.32-6.382-5.32-.355 0-.828 0-1.182.119l-2.246.236.473 2.246c.472 3.31 3.427 5.437 6.5 5.437h1.064l2.246-.59zm9.929 61.58a5.482 5.482 0 002.246.473c2.009 0 4.018-1.182 4.964-3.19l.827-1.656-1.773-.709c-.709-.473-1.536-.59-2.245-.59-2.01 0-4.02 1.181-4.965 3.19l-.709 1.773zm9.929-26.24c-2.246.946-3.665 3.428-3.665 5.91 0 .946.119 1.774.591 2.601l.828 1.891 2.01-.945c2.245-1.064 3.545-3.31 3.545-5.674 0-.945-.118-1.891-.473-2.837l-.827-1.89zm-8.274-24.23c.827 3.664 4.255 6.028 7.8 6.028.71 0 1.3-.118 1.892-.236l2.718-.71-.709-2.6c-.945-3.664-4.255-6.028-7.8-6.028-.592 0-1.301.118-1.892.237l-2.6.709zm-7.801-96.686c-.71-.118-1.655-.236-2.364-.236-4.255 0-8.156 2.837-9.102 7.092l-.709 3.191 3.192.828c.709.236 1.418.236 2.127.236 4.255 0 8.156-2.837 9.22-7.21l.709-3.073zm-1.182 30.614c-.473-4.02-3.783-6.738-7.447-6.738h-.709l-2.6.237.236 2.482c.473 4.019 3.782 6.737 7.565 6.737h.709l2.6-.236zm18.084 56.853a5.488 5.488 0 001.182-3.428c0-1.655-.71-3.191-1.891-4.255l-1.537-1.182-1.182 1.418c-.827 1.064-1.3 2.246-1.3 3.428 0 1.537.827 3.191 2.128 4.255l1.3 1.182zm-26.595 54.962c-2.009 1.3-3.073 3.428-3.073 5.791 0 1.182.355 2.6 1.064 3.665l1.418 2.009 1.773-1.3c2.128-1.3 3.31-3.428 3.31-5.792 0-1.182-.473-2.6-1.182-3.664l-1.182-2.01zm23.167-4.965c.828 2.955 3.428 4.728 6.146 4.728.591 0 1.182-.118 1.892-.354l1.89-.591-.472-2.01c-.827-2.836-3.428-4.61-6.146-4.61-.591 0-1.182 0-1.773.237l-2.01.591zm-18.439 17.612c.473.118.946.236 1.419.236 1.3 0 2.6-.827 2.955-2.127l.59-1.064-1.181-.355c-.473-.236-.828-.354-1.3-.354-1.3 0-2.6.827-3.074 2.246l-.354 1.063zm-4.728-14.775c.473-.473.71-1.3.71-1.891 0-.71-.355-1.537-.946-2.01l-.71-.709-.59.71c-.473.59-.71 1.3-.71 1.89 0 .71.355 1.537.946 2.128l.71.591zm36.76-59.453c-.591-.237-1.3-.355-2.01-.355-2.009 0-4.018 1.182-4.846 3.31l-.59 1.654 1.654.591c.591.237 1.3.473 2.01.473 2.009 0 4.018-1.3 4.846-3.31l.59-1.654zm-37.823-4.255c1.3 2.127 3.427 3.19 5.673 3.19 1.182 0 2.364-.235 3.428-.945l1.773-1.063-.946-2.01c-1.3-2.01-3.31-3.073-5.673-3.073-1.064 0-2.364.236-3.428.946l-2.01 1.063zm28.249-37.706c-1.418-1.182-3.31-1.89-5.083-1.89-2.245 0-4.491.945-6.028 2.836l-1.654 2.128 2.009 1.654c1.536 1.3 3.31 1.892 5.2 1.892 2.246 0 4.492-.946 6.029-2.719l1.773-2.246zm19.384-25.176c.119-.709.119-1.3.119-1.773 0-4.61-3.31-8.628-7.802-9.455l-3.31-.473-.472 3.073c-.118.71-.118 1.182-.118 1.773 0 4.491 3.191 8.51 7.801 9.456l3.073.472zm-42.787-2.127c-3.546.354-6.028 3.31-6.028 6.737v.591l.236 2.246 2.364-.237c3.428-.354 5.792-3.31 5.792-6.619v-.709l-.237-2.246zm38.65 96.45c1.419-.237 2.483-1.656 2.483-3.192v-.355l-.119-1.064-1.063.237c-1.419.118-2.483 1.536-2.483 3.073v1.418zm-43.496 21.393c1.536-.236 2.6-1.655 2.6-3.191v-.355l-.118-.946-1.064.119c-1.418.118-2.6 1.773-2.6 3.31v.236l.236.945zm38.296-75.883c4.964-.591 8.628-4.846 8.628-9.81v-1.064l-.473-3.31-3.31.355c-4.963.59-8.628 4.846-8.628 9.81 0 .355.119.71.119 1.064l.354 3.428zm-26.595 97.159c1.3-.591 2.01-1.773 2.01-3.074 0-.354-.119-.945-.237-1.418l-.59-1.064-1.065.591c-1.182.473-1.89 1.773-1.89 3.073 0 .473.117.946.236 1.3l.59 1.064zm34.396-36.524c.118-.236.118-.59.118-.945 0-1.773-1.418-3.428-3.31-3.9l-1.3-.237-.354 1.418c0 .119-.119.473-.119.71 0 1.89 1.419 3.664 3.31 4.018l1.418.355zm-.71-30.258v-.591c0-1.655-1.181-3.073-2.836-3.428l-1.3-.118-.237 1.064v.472c0 1.773 1.182 3.428 3.073 3.546l1.182.237zm1.419-80.966c.118-.472.236-.827.236-1.3 0-1.064-.827-2.127-1.89-2.364l-.946-.236-.591 1.064c-.119.472-.119.709-.119 1.182 0 1.182.71 2.245 1.892 2.482l1.063.354zm-30.259.71h.591c1.655 0 3.073-1.182 3.073-2.719V116.28l-1.3-.119h-.59c-1.774 0-3.192 1.182-3.192 2.719v.236l.118 1.182zm-48.343 84.63c2.364-1.301 3.665-3.783 3.665-6.384 0-1.3-.355-2.6-.946-3.782l-1.3-2.127-2.246 1.182c-2.364 1.418-3.664 3.9-3.664 6.5 0 1.182.236 2.6.945 3.783l1.3 2.127zm-5.791-28.25c-.355 1.064-.473 2.246-.473 3.31 0 4.49 2.837 8.746 7.565 10.4l3.546 1.065 1.063-3.546c.473-1.064.591-2.246.591-3.428 0-4.492-2.955-8.747-7.564-10.283l-3.428-.946zm-6.974 13.474c2.128-.827 3.073-2.6 3.073-4.373 0-.71-.118-1.536-.59-2.246l-1.065-1.536-1.773.827c-1.89.828-3.19 2.482-3.19 4.255 0 .71.236 1.537.708 2.364l.946 1.537zm7.565 15.603c-1.537-2.01-3.9-3.074-6.147-3.074-1.773 0-3.546.591-5.082 1.773l-2.128 1.773 1.773 2.128c1.537 1.891 3.9 2.837 6.265 2.837 1.655 0 3.428-.473 4.964-1.773l2.01-1.655zm-.473-16.312c-.591-.118-.946-.118-1.418-.118-4.374 0-8.393 3.073-8.983 7.447l-.473 2.954 2.955.473c.472.118 1.063.118 1.536.118 4.255 0 8.156-3.073 8.865-7.328l.473-3.073zm-11.938-13.947c.473 3.191 3.428 5.437 6.5 5.437.474 0 .71 0 1.183-.118l2.127-.473-.354-2.128c-.71-3.31-3.428-5.437-6.62-5.437-.354 0-.709 0-1.063.119l-2.246.354zm28.604 2.364c.118-.355.236-.828.236-1.182 0-1.182-.709-2.246-2.01-2.482l-.827-.237-.472.946c-.237.473-.355.827-.355 1.3 0 1.3.827 2.246 2.01 2.364l1.063.355zm-8.392 29.668l4.255 2.245c2.01.946 4.019 1.419 6.146 1.419 5.083 0 9.929-2.837 12.293-7.92l1.89-4.373-4.254-2.127c-2.01-.946-4.137-1.419-6.146-1.419-5.083 0-9.93 2.837-12.175 7.92zm5.555-13.475h3.191c4.728 0 8.038-3.664 8.038-8.628 0-.591 0-1.182-.118-1.892l-.591-3.546h-3.31c-4.728 0-8.037 3.546-8.037 8.51 0 .592.118 1.3.118 2.01zm4.492-15.602h1.182c2.009 0 3.664-1.537 3.664-3.546v-1.182h-1.3c-1.892 0-3.546 1.537-3.546 3.546zm15.602-2.128l-1.419-1.3c-1.063-.827-2.245-1.064-3.427-1.064-1.655 0-3.31.71-4.492 2.01l-1.064 1.536 1.419 1.064c1.063.827 2.364 1.3 3.664 1.3 1.536 0 3.073-.709 4.255-2.127zm-2.6 36.05l1.654-.827c1.891-.945 2.955-2.837 2.955-4.846 0-.827-.236-1.536-.473-2.246l-.827-1.536-1.655.827c-1.773.946-2.837 2.719-2.837 4.61 0 .827.119 1.655.473 2.364zm-6.029-20.684l1.182 1.773c1.182 1.655 3.073 2.6 4.965 2.6 1.182 0 2.363-.354 3.31-1.063l1.772-1.182-1.182-1.773c-1.182-1.655-3.073-2.483-4.964-2.483-1.064 0-2.246.237-3.31.946zm7.683-10.165l-1.655.118c-2.6.118-4.491 2.364-4.491 4.965v.354l.118 1.655h1.655c2.6-.237 4.491-2.482 4.491-5.083v-.354zm-27.304 24.94l-.59.709c-.473.59-.828 1.3-.828 2.127 0 .828.355 1.537.946 2.01l.827.709.473-.71c.59-.472.827-1.3.827-2.009 0-.827-.236-1.536-.827-2.127zm4.256-10.047l.709.59c.473.356 1.063.474 1.654.474.828 0 1.655-.237 2.01-.71l.59-.59-.827-.591a2.903 2.903 0 00-1.773-.591c-.709 0-1.3.354-1.772.827zm74.7 61.463c.592-.71.946-1.773.946-2.719 0-1.182-.354-2.246-1.3-3.073l-1.064-.945-.945.945c-.71.827-1.064 1.773-1.064 2.837 0 1.182.473 2.364 1.418 3.073l1.064.946z" data-paper-data="{&quot;isPathIcon&quot;:true}"/></g></g><g class="prefix__watermark-group" opacity=".04"><path class="prefix__watermark-path" d="M129.52 370.3a11.88 11.88 0 012.58 5.58 12 12 0 01.11 3 11.81 11.81 0 01-.64 2.93 12.34 12.34 0 01-1.41 2.72 11.65 11.65 0 01-2.13 2.32 12 12 0 01-2.64 1.69 13 13 0 01-2.91.9 12.47 12.47 0 01-3 .12 12.17 12.17 0 01-2.93-.64 11.8 11.8 0 01-2.72-1.38 12.19 12.19 0 01-4-4.79 11.85 11.85 0 01-.89-2.92 12.14 12.14 0 01-.13-3 11.54 11.54 0 01.64-2.92 11.67 11.67 0 013.5-5 11.44 11.44 0 012.67-1.69 11.64 11.64 0 012.92-.91 10.71 10.71 0 013-.12 11.68 11.68 0 015.66 2 11.7 11.7 0 012.34 2.12m-1.4 8.76a13 13 0 01-1.22 2.32 9.68 9.68 0 01-1.81 2 7.44 7.44 0 01-2.38 1.37 6.17 6.17 0 01-5.11-.46 8.73 8.73 0 01-3.85-4.58 6.69 6.69 0 01-.34-2.66 6.09 6.09 0 01.77-2.47 7.15 7.15 0 011.75-2.11 9.58 9.58 0 011.09-.81 8.23 8.23 0 011.12-.63 8.14 8.14 0 011.19-.46 12.71 12.71 0 011.32-.37l2 2.38a12.83 12.83 0 00-1.56.17 7.86 7.86 0 00-1.23.32 4.5 4.5 0 00-1 .49 6.41 6.41 0 00-.93.67 4.49 4.49 0 00-1.15 1.39 3.87 3.87 0 00-.45 1.58 4.12 4.12 0 00.26 1.63 6.11 6.11 0 002.36 2.82 4.43 4.43 0 001.57.53 3.91 3.91 0 001.62-.17 4.71 4.71 0 001.57-.89 10.5 10.5 0 00.83-.79 5.71 5.71 0 00.65-.93 10.13 10.13 0 00.54-1.14 12.24 12.24 0 00.44-1.49l2 2.33m-14.46 4.55a8.86 8.86 0 002.78 2.22 9 9 0 003.29.94 9.15 9.15 0 003.39-.37 8.68 8.68 0 003.11-1.69 8.8 8.8 0 002.22-2.78 9.15 9.15 0 001-3.29 8.95 8.95 0 00-4.83-8.76 9 9 0 00-6.73-.57 9 9 0 00-5.33 4.47 8.94 8.94 0 00-.57 6.71 8.76 8.76 0 001.7 3.12M147 349c-.48.12-1.09.31-1.82.57a24.37 24.37 0 00-2.4 1A28.35 28.35 0 00140 352a20.72 20.72 0 00-2.71 1.94c-.7.59-1.28 1.11-1.74 1.57a15.07 15.07 0 00-1.1 1.22 4.09 4.09 0 00-.59.92 2.32 2.32 0 00-.22.64 1.16 1.16 0 000 .47 1.83 1.83 0 00.18.29 1.15 1.15 0 001 .37 5.54 5.54 0 001.51-.38q.87-.35 1.95-.9l2.26-1.18q1.2-.65 2.49-1.29c.87-.44 1.73-.83 2.59-1.17a18.94 18.94 0 012.6-.81 9.27 9.27 0 012.46-.29 6.25 6.25 0 012.24.49 5.12 5.12 0 011.89 1.47 6.35 6.35 0 011.41 2.61 6 6 0 01.09 2.6 8.3 8.3 0 01-.9 2.52 17.79 17.79 0 01-1.62 2.37 23.92 23.92 0 01-2 2.15c-.72.67-1.41 1.29-2.09 1.87a33.79 33.79 0 01-5.33 3.7 32.29 32.29 0 01-4.91 2.28l-3.61-4.3a21.38 21.38 0 005.39-1.87 27.2 27.2 0 005.4-3.56 21.59 21.59 0 002.38-2.27 8.67 8.67 0 001.18-1.7 2.32 2.32 0 00.27-1.19 1.34 1.34 0 00-.28-.74 1.21 1.21 0 00-1-.42 4.32 4.32 0 00-1.55.34 15.77 15.77 0 00-2 .88c-.72.37-1.48.77-2.27 1.21l-2.45 1.3c-.85.45-1.7.85-2.56 1.21a22.37 22.37 0 01-2.54.86 10 10 0 01-2.43.32 5.76 5.76 0 01-2.2-.45 5 5 0 01-1.89-1.45 6.12 6.12 0 01-1.31-2.41 6 6 0 01-.1-2.41 8.28 8.28 0 01.81-2.38 14.06 14.06 0 011.49-2.24 22.37 22.37 0 011.85-2.05q1-1 2-1.77c.7-.59 1.44-1.15 2.23-1.7s1.62-1.06 2.44-1.53 1.63-.91 2.43-1.3 1.58-.75 2.3-1L147 349M186.76 337.57l-10.6-12.63 3.92 18.24-4.66 3.91-17.27-7 10.6 12.63-4.86 4.07-15.09-18 6.59-5.54 18.69 7.52-4.15-19.71 6.57-5.52 15.09 18-4.83 4.05M208.84 313.24l-10 8.42 1.16 4.82-5.44 4.52-5.68-25.89 5.42-4.55 24.51 10.09-5.42 4.55-4.55-2m-11.23 3.45l6.57-5.52-8.83-3.87 2.26 9.39M227.49 281.38c-.48.12-1.09.31-1.82.57a24.37 24.37 0 00-2.4 1 26.11 26.11 0 00-2.7 1.47 20.72 20.72 0 00-2.71 1.94c-.7.59-1.28 1.11-1.74 1.57a13.39 13.39 0 00-1.1 1.22 4.29 4.29 0 00-.59.91 2.48 2.48 0 00-.22.65 1.16 1.16 0 000 .47 1.83 1.83 0 00.18.29 1.15 1.15 0 001 .37 5.54 5.54 0 001.51-.38q.87-.34 2-.9l2.26-1.18q1.2-.64 2.49-1.29c.87-.44 1.73-.83 2.59-1.17a18.94 18.94 0 012.6-.81 9.27 9.27 0 012.46-.29 6.08 6.08 0 012.24.49 5.09 5.09 0 011.89 1.46 6.47 6.47 0 011.41 2.61 6.07 6.07 0 01.09 2.61 8.3 8.3 0 01-.9 2.52 16.32 16.32 0 01-1.63 2.36 21.41 21.41 0 01-2 2.16c-.72.67-1.41 1.29-2.1 1.86a33.36 33.36 0 01-5.32 3.71 31.92 31.92 0 01-4.92 2.28l-3.6-4.3a21.38 21.38 0 005.39-1.87 27.2 27.2 0 005.4-3.56 21.59 21.59 0 002.38-2.27 8.67 8.67 0 001.18-1.7A2.32 2.32 0 00231 293a1.34 1.34 0 00-.28-.74 1.21 1.21 0 00-1-.42 4.32 4.32 0 00-1.55.34 16.54 16.54 0 00-2 .88c-.71.37-1.47.77-2.26 1.21l-2.46 1.3c-.84.44-1.7.85-2.55 1.21a24.53 24.53 0 01-2.54.86 10 10 0 01-2.36.36 5.76 5.76 0 01-2.2-.45 5 5 0 01-1.89-1.45 6.12 6.12 0 01-1.31-2.41 5.78 5.78 0 01-.1-2.41 8 8 0 01.81-2.38 14.61 14.61 0 011.49-2.25 22.26 22.26 0 011.85-2q1-1 2-1.77c.7-.59 1.44-1.15 2.23-1.7s1.62-1.06 2.44-1.53 1.63-.91 2.43-1.31 1.58-.74 2.3-1l3.5 4.16M261.64 274.74l-6.29-7.5L243 277.61l6.3 7.5-4.86 4.07-15.09-18 4.85-4.08 5.49 6.55L252 263.3l-5.49-6.55 4.86-4.07 15.09 18-4.86 4.08M272.18 265.9l-15.09-18 4.86-4.08 15.09 18-4.86 4.08M299.65 242.85l-22.51-2.18L287.51 253l-4.85 4.08-15.1-18 5.28-4.43 22.56 2.22L285 224.5l4.83-4.06 15.09 18-5.26 4.42M306.68 205.52a31.88 31.88 0 015.29-3.66 34.48 34.48 0 015.14-2.35l3.69 4.39a20.77 20.77 0 00-2.37.61 20.47 20.47 0 00-2.61 1 25.12 25.12 0 00-2.76 1.49 23.9 23.9 0 00-2.8 2 20.42 20.42 0 00-2.8 2.77 12.77 12.77 0 00-1.64 2.52 7 7 0 00-.68 2.24 6 6 0 00.66 3.64 8.16 8.16 0 00.94 1.38 9.12 9.12 0 001.08 1.07 6.39 6.39 0 001.47.91 6.73 6.73 0 001.88.48 6.54 6.54 0 002.28-.18 11.67 11.67 0 002.74-1.07 19.38 19.38 0 003.18-2.22c.57-.48 1.06-.92 1.46-1.31a14.57 14.57 0 001-1.13 11.46 11.46 0 00.81-1.05l.74-1.09-1.82-2.17-5.45 4.57-3.31-3.94 10.31-8.65 7.71 9.19a29 29 0 01-1.67 2.43q-1 1.26-2.1 2.52c-.74.84-1.5 1.65-2.3 2.44s-1.58 1.5-2.33 2.14a31 31 0 01-3.59 2.61 22.55 22.55 0 01-3.64 1.83 15.64 15.64 0 01-3.63.89 10.72 10.72 0 01-3.49-.15 10.45 10.45 0 01-3.28-1.33 12.54 12.54 0 01-3-2.67 12 12 0 01-2.08-3.44 10.45 10.45 0 01-.71-3.5 11.14 11.14 0 01.51-3.51 15.72 15.72 0 011.56-3.43 21.62 21.62 0 012.42-3.28 30.3 30.3 0 013.15-3M336.91 211.59l-15.1-18 4.86-4.08 11.79 14 13.13-11 3.31 3.94-18 15.1M374.54 164.71a12.28 12.28 0 012.59 4.81 10.44 10.44 0 010 5 14.62 14.62 0 01-2.33 5 25.55 25.55 0 01-4.56 4.85 26.07 26.07 0 01-5.6 3.67 14.79 14.79 0 01-5.38 1.43 10.43 10.43 0 01-4.94-.89 13.24 13.24 0 01-6.87-8.18 10.48 10.48 0 010-5 14.51 14.51 0 012.36-5 25.23 25.23 0 014.57-4.89 25 25 0 015.59-3.64 14.45 14.45 0 015.35-1.43 10.31 10.31 0 014.93.92 12.22 12.22 0 014.28 3.38m-4.91 4.11a8.36 8.36 0 00-2-1.72 5.5 5.5 0 00-2.65-.85 7.72 7.72 0 00-3.32.57 14.49 14.49 0 00-4 2.52 16.72 16.72 0 00-2.38 2.4 10.15 10.15 0 00-1.39 2.24 6.71 6.71 0 00-.56 2.1 5.69 5.69 0 00.1 1.9 6.21 6.21 0 00.61 1.69 9.85 9.85 0 001 1.44 10.48 10.48 0 001.26 1.23 6.67 6.67 0 001.57.92 6.1 6.1 0 001.85.41 6.8 6.8 0 002.15-.2 11.06 11.06 0 002.45-1 17.67 17.67 0 002.77-1.94 14.39 14.39 0 003.18-3.52 7.74 7.74 0 001.14-3.17 5.54 5.54 0 00-.37-2.74 8.52 8.52 0 00-1.36-2.3M382.66 141.76a32.3 32.3 0 015.34-3.66 34.12 34.12 0 015.15-2.35l3.69 4.4a19.62 19.62 0 00-2.37.6 22.08 22.08 0 00-2.61 1 26 26 0 00-2.77 1.49 23.9 23.9 0 00-2.8 2 21 21 0 00-2.8 2.78 13.19 13.19 0 00-1.64 2.51 7.29 7.29 0 00-.68 2.24 6.36 6.36 0 00.06 2 5.8 5.8 0 00.61 1.68 8.12 8.12 0 00.93 1.38 9.16 9.16 0 001.08 1.08 6.56 6.56 0 001.48.9 6 6 0 001.87.48 6.76 6.76 0 002.28-.17 12 12 0 002.74-1.08 18.57 18.57 0 003.18-2.22c.58-.48 1.06-.92 1.46-1.31s.75-.77 1.05-1.12.57-.72.81-1.06l.73-1.09-1.82-2.17-5.45 4.57-3.3-3.94 10.3-8.65 7.71 9.19a29 29 0 01-1.67 2.43q-1 1.26-2.1 2.52c-.73.84-1.5 1.66-2.3 2.44s-1.57 1.5-2.33 2.14a31 31 0 01-3.59 2.61 22.15 22.15 0 01-3.64 1.83 15.56 15.56 0 01-3.62.89 11 11 0 01-3.49-.14 10.84 10.84 0 01-3.28-1.33 12.82 12.82 0 01-3-2.68 12.12 12.12 0 01-2.08-3.43A10.71 10.71 0 01375 155a11.18 11.18 0 01.51-3.51 15.51 15.51 0 011.57-3.43 21.44 21.44 0 012.42-3.28 30.19 30.19 0 013.14-3M428.63 119.31a12.26 12.26 0 012.59 4.82 10.44 10.44 0 010 5 14.53 14.53 0 01-2.34 5 25.29 25.29 0 01-4.56 4.86 26 26 0 01-5.59 3.67 14.84 14.84 0 01-5.38 1.43 10.61 10.61 0 01-4.95-.89 12.15 12.15 0 01-4.3-3.37 12 12 0 01-2.56-4.81 10.48 10.48 0 010-5 14.39 14.39 0 012.35-5 27.89 27.89 0 0110.16-8.53 14.49 14.49 0 015.36-1.43 10.27 10.27 0 014.92.92 12.21 12.21 0 014.28 3.37m-4.91 4.12a8.17 8.17 0 00-2-1.72 5.58 5.58 0 00-2.65-.86 7.86 7.86 0 00-3.31.58 14.49 14.49 0 00-4 2.52 16.21 16.21 0 00-2.38 2.4 9.85 9.85 0 00-1.4 2.24 7 7 0 00-.56 2.1 6 6 0 00.1 1.9 6.23 6.23 0 00.62 1.69 8.49 8.49 0 001 1.44 9.18 9.18 0 001.26 1.23 6.67 6.67 0 001.57.92 6 6 0 001.84.41 6.86 6.86 0 002.16-.2 11.26 11.26 0 002.45-1 17.62 17.62 0 002.76-1.94 14.67 14.67 0 003.19-3.52 7.71 7.71 0 001.13-3.17 5.53 5.53 0 00-.36-2.74 8.55 8.55 0 00-1.37-2.3"/></g></svg>